<?xml version="1.0" encoding="utf-8"?>
<!-- Generator: Adobe Illustrator 16.0.0, SVG Export Plug-In . SVG Version: 6.00 Build 0)  -->
<!DOCTYPE svg PUBLIC "-//W3C//DTD SVG 1.1//EN" "http://www.w3.org/Graphics/SVG/1.1/DTD/svg11.dtd">
<svg version="1.1" id="Vrstva_1" xmlns="http://www.w3.org/2000/svg" xmlns:xlink="http://www.w3.org/1999/xlink" x="0px" y="0px"
	 width="1084px" height="746.3px" viewBox="0 0 1084 746.3" style="enable-background:new 0 0 1084 746.3;" xml:space="preserve">
<style type="text/css">
<![CDATA[
	.st0{fill:#FFFFFF;stroke:#C69C6D;stroke-width:3;stroke-miterlimit:10;}
	.st1{opacity:0.6;fill:#FFFFFF;}
	.st2{fill:#AE2C38;}
	.st3{fill-rule:evenodd;clip-rule:evenodd;fill:#76531F;}
	.st4{fill:#E6E6E6;}
	.st5{fill:#FFFFFF;stroke:#C69C6D;stroke-miterlimit:10;}
	.st6{fill:#808184;}
	.st7{fill:#FFFFFF;stroke:#C69C6D;stroke-width:2;stroke-miterlimit:10;}
	.st8{fill-rule:evenodd;clip-rule:evenodd;fill:#AE2C38;}
	.st9{fill:#8C6239;}
	.st10{fill:url(#);}
	.st11{fill:none;stroke:#CAA070;stroke-miterlimit:10;}
	.st12{fill:none;stroke:#C69C6D;stroke-width:2;stroke-linecap:round;stroke-miterlimit:10;}
	.st13{fill:#F7E7CE;}
	.st14{fill:#333333;stroke:#333333;stroke-width:0.25;stroke-miterlimit:10;}
	.st15{fill:#C2A473;}
	.st16{fill:#C69C6D;}
	.st17{fill:#2C2C2C;}
	.st18{fill-rule:evenodd;clip-rule:evenodd;}
	.st19{opacity:0.7;}
	.st20{fill:#AE2C38;stroke:#8D1F2A;stroke-miterlimit:10;}
	.st21{fill:#FFFFFF;}
	.st22{fill:none;}
	.st23{fill:#CAA070;}
	.st24{fill:none;stroke:#C69C6D;stroke-miterlimit:10;}
	.st25{fill:#333333;}
	.st26{fill:none;stroke:#C69C6D;stroke-width:2;stroke-linecap:round;stroke-miterlimit:10;stroke-dasharray:2,8;}
	.st27{opacity:0.7;fill:url(#);}
	.st28{fill-rule:evenodd;clip-rule:evenodd;fill:#CAA070;}
	.st29{fill:#FFFFFF;stroke:#CAA070;stroke-miterlimit:10;}
	.st30{fill:#CAA070;stroke:#C69C6D;stroke-miterlimit:10;}
	.st31{clip-path:url(#SVGID_22_);}
	.st32{clip-path:url(#SVGID_24_);}
	.st33{clip-path:url(#SVGID_26_);}
	.st34{fill:none;stroke:#C69C6D;stroke-width:2;stroke-miterlimit:10;}
	.st35{fill-rule:evenodd;clip-rule:evenodd;fill:#333333;}
	.st36{fill-rule:evenodd;clip-rule:evenodd;fill:#333333;stroke:#FFFFFF;stroke-miterlimit:10;}
	.st37{fill-rule:evenodd;clip-rule:evenodd;fill:#FFFFFF;stroke:#333333;stroke-width:0.25;stroke-miterlimit:10;}
	.st38{fill:#76531F;}
	.st39{fill:#A67C52;}
	.st40{fill-rule:evenodd;clip-rule:evenodd;fill:#FFFFFF;stroke:#8D1F2A;stroke-miterlimit:10;}
	.st41{fill-rule:evenodd;clip-rule:evenodd;fill:#AE2C38;stroke:#8D1F2A;stroke-miterlimit:10;}
	.st42{opacity:0.8;fill:url(#);}
]]>
</style>
<g>
	<path class="st0" d="M771.4,96.1c-94.2,0-177.2,48-225.9,120.8c-49.3-68-129.5-112.3-219.9-112.3c-149.9,0-271.5,121.5-271.5,271.5
		c0,149.9,121.6,271.5,271.5,271.5c94.2,0,177.2-48,225.9-120.8c49.3,68,129.4,112.3,219.9,112.3c149.9,0,271.5-121.5,271.5-271.5
		C1042.8,217.6,921.3,96.1,771.4,96.1z"/>
	<g>
		<path class="st35" d="M353.6,437.1c2.3-0.5,4.7-1,7-1.5c0.4,0,0.9,0.1,1.3,0.1c7.7-1.4,15.1-0.3,22.4,2.3
			c7.4,2.7,14.7,5.5,22.1,8.1c4.5,1.6,9.1,2.9,13.7,4c5.1,1.2,9.8-0.1,13.4-4c0.8-0.9,1.6-2.3,1.6-3.4c0.1-4.7-1.6-8.7-5.7-11.4
			c-3.9-2.6-9.2-2.3-11.3,1.9c-0.4,0.7-1.6,1-2.8,1.7c0.1-1.5-0.1-2.4,0.3-3.1c3.4-6.2,9.6-9.7,16.8-7.8c4.1,1.1,7.4,3.4,10.5,6.1
			c2.8,2.5,4.3,5.8,5.9,9c0.4,1.8,0.8,3.7,1.2,5.5c0,0.6,0,1.2,0,1.8c0,7.3-2.3,13.8-7.1,19.3c-6.5,7.5-14.9,12.1-24.2,14.9
			c-10.9,3.3-22.1,5-33.6,4.8c-14.7-0.3-29.2-1.6-42.4-9c-1.9-1-3-0.7-4.2,1c-5,7-11.8,12.1-19,16.6c-11.8,7.3-24.4,12.7-37.7,16.3
			c-10.7,2.9-21.5,2.5-32.2,0.1c-8.9-2-15.2-7.4-19.1-15.6c-0.6-1.3-1.2-2.7-1.8-4.1c-0.4-1.8-0.8-3.7-1.2-5.5
			c0.3-2.3,0.2-4.7,0.9-6.8c0.9-2.9,1.8-6.1,3.6-8.3c4.9-5.8,11.5-7.5,18.9-5.8c1.3,0.3,3.2,0.5,3,3.1c-1.3,0-2.5,0.1-3.7-0.1
			c-3.8-0.7-7.6,1.3-9.3,4.8c-1.9,4-1.1,8,0.4,11.9c1.1,2.9,3.9,4.2,7,3.9c3.6-0.4,6.6-2.1,9.3-4.3c7.3-5.9,14.4-12.1,21.6-18.1
			c5.3-4.4,10.5-8.9,16.1-12.9c3.2-2.3,7-3.7,10.5-5.4c1.8-0.4,3.7-0.8,5.5-1.2c0.5,0,1,0.1,1.5,0.1c4.1-0.5,8.3-0.5,12.3,0.6
			c2.7,0.8,5.4,1.6,8,2.6c1.2,0.5,2,0.3,2.9-0.7c2.2-2.1,4.4-4.3,7-5.9C346.3,440.5,350,438.9,353.6,437.1z"/>
		<g>
			<path class="st25" d="M340.8,599.5c0,0,2.9-2.3,7.5-3.8c8.1-2.8,15.2-4.2,19.1,0.8c4.7,6.2,10,20,11,32.6
				c0.5,6.6-0.6,8.9-0.6,8.9s-5.5,4.5-18.2,5.2c-13.8,0.7-16.5-3.8-16.5-3.8s1.2-4.7,0.9-17.1C343.6,610,340.8,599.5,340.8,599.5z"
				/>
			<g>
				<path class="st25" d="M329,630.2c4.7-2,8.6-4,10.4-5c0-1.9,0-3.9-0.1-6c-0.1-1.4-0.2-2.7-0.3-3.9c-2.8-0.6-5.6-1.2-11.8-2.4
					c-15.8-3.2-23.3-3.6-23.3-3.6s5.4-1.7,16.7-1.1c8,0.5,14,1.9,18,3.3c-0.5-6.3-2.7-12.6-2.7-12.6c-10.7-14.6-41.2-33-55-31.2
					c-10.4,1.4-16.9,29.6-12.9,59.2c4,29.6,16.6,55.2,27.8,53.7c13.1-1.8,41.4-37.5,41.4-37.5s1.6-5.2,2.1-13.7
					c-7.1,3-24.6,6.7-24.6,6.7S322.6,632.9,329,630.2z"/>
				<path class="st25" d="M415.3,549.5c-14.3,1.9-37.1,27.6-43.6,44.5l-0.2,0.6c0,0,0.7,0.9,0.9,1.2c1.7,2.2,3.4,5.3,5,8.9
					c3-1.5,8.8-4.4,14-7.1c7.5-3.8,13.2-5.6,13.2-5.6s-19.5,12.1-25.5,17.1c1.4,3.9,2.6,8.1,3.4,12.4c2.2,0.6,6.8,1.7,12.2,2.3
					c7.7,1,16.4,2.4,16.4,2.4s-21.5,0.8-28.1-1.2c0.2,1.1,0.3,2.2,0.4,3.4c0.5,6.6-0.6,8.9-0.6,8.9c3.5,3.7,33.6,26.9,48.2,25
					c11.2-1.5,16.6-29.6,12.6-59.2C439.5,573.6,425.7,548.1,415.3,549.5z"/>
			</g>
		</g>
		<path class="st35" d="M704.6,438.6c9.6-4.4,19.3-8.9,29-13.1c9.9-4.3,19.6-2.8,28.8,2.2c4.1,2.3,7.8,3,12.6,2.2
			c13.9-2.4,25.6,2,34.6,13.2c5,6.2,10.2,12.2,15.6,18.7c-8.3,6.2-15.7,13.8-25.5,18c-2.1,0.9-4.2,1.7-6.2,2.6
			c-22.3,9.6-42.7,6.3-62.2-8C718.4,465.1,709.9,452.8,704.6,438.6z M727.8,445.5c17.6,17.1,62.9,24.2,76,12.1
			c-3.8-1.2-7.8-2.2-11.5-3.7c-8.1-3.3-16.1-5.1-24.9-2.9c-2.4,0.6-5.4-0.9-8-1.6c-4.4-1.2-8.7-3.1-13.1-3.6
			C740.3,445.2,734.2,445.6,727.8,445.5z"/>
		<g>
			<path class="st25" d="M152.8,329c-16.3,4-57.4,28.3,31.6,59.4c71.1,24.8,193.7,53.7,271.2-131c5.7-13.5,20.6-87.3-40.3-42.5
				C357.7,257.3,319.3,288.3,152.8,329z"/>
			<path class="st25" d="M205.6,361.5c0,0,100.7,36.5,212.2-91.1c0,0-92.8-194-92.6-214.2c0,0-116.2,6.2-215.4,97.1
				C109.8,153.3,212.5,356.5,205.6,361.5z"/>
		</g>
		<g>
			<path class="st14" d="M1052.5,436.5c0,0-59.7,72.7-289.8-62.8c0,0-225.3-147.7-214.5-240.8c0,0,18.1-71,203.2,24.1
				c0,0,176-90.6,180.2,122.4C931.5,279.4,1070.7,366.6,1052.5,436.5z"/>
			<path class="st37" d="M671.8,306.1c-10.5,3.9-19.8,0.7-28.2-6.1c-9.1-7.3-15.5-16.8-21.7-26.5c-1.5-2.4-3-4.8-5.1-8.1
				c-0.3,15.6,4.8,28.4,13.9,40.7c-13-4.3-24.5-12.4-38.1-7.2c-0.1,0.4-0.2,0.9-0.4,1.3c1,0.5,1.9,1,2.9,1.4
				c15,6.1,27.5,15.5,39.1,26.8c10,9.6,22,16.3,36.4,17.4c16.4,1.2,27.6-7.5,35.7-20.6c4.5-7.4,8.2-15.4,11.3-23.5
				c4.1-10.6,8.3-21.1,14.9-30.5c5.6-8,12.5-14.3,22.1-17.2c0.9-0.3,1.8-0.5,2.7-0.6c0.3,0,0.7,0.2,1.7,0.5
				c-2.4,1.9-4.4,3.6-6.7,5.5c2.7,2.9,5.2,5.4,8.1,8.5c1.2-2.3,2.2-4.2,3.6-6.8c-0.2,9.6-2.9,17.7-7.2,25.2
				c-9.8,17.3-24,30.5-39.7,42.1c-13.1,9.6-25.1,20.4-35.1,33.3c-21.4,27.6-15.8,62.7,12.9,82.9c12.7,9,21.4,21.5,27.7,35.8
				c0.1,0.3,0,0.7,0,1.1c0.2,0.2,0.4,0.3,0.6,0.5c3.1-3.4,3.4-7.6,3.1-11.7c-0.7-10.4-5-19.6-9.7-28.7c-0.6-1.2-1.3-2.4-1.7-3.9
				c14.5,6.6,29,7,44.7,1.5c-3.5-1.3-6.3-2-8.8-3.2c-8.5-4.1-17.5-7.7-25.4-12.8c-10.9-7-15.9-17.7-14-30.9c1.6-11,6.5-20.7,13-29.4
				c7.9-10.7,16.6-20.8,24.8-31.2c2.8-3.5,5.4-7.2,8.7-11.6c1.7,4,2.9,7.4,4.6,10.4c1.7,2.9,3.6,5.9,6.1,8c3.1,2.7,7,4,11.2,2.1
				c2.9-1.4,5.8-2.8,8.7-4.3c9.5-4.8,19.4-5.3,29.6-2.7c1.3,0.3,2.5,0.6,3.8,0.9c0.2,0,0.5-0.1,0.8-0.1
				c-19.1-14.9-26.5-36.5-33.1-58.5c1.3,3.6,2.5,7.2,3.9,10.8c4.8,12.3,10.2,24.4,18.6,34.7c2.1,2.6,4.6,5.2,7.4,6.9
				c1.9,1.2,4.7,0.9,7.2,1.3c0.3-2.3,0.7-4.6,0.9-6.9c0.1-0.8-0.4-1.7-0.8-3.3c1.8,0.6,3,0.9,4.2,1.3c5,1.6,10,3.7,15.1,4.7
				c2.3,0.4,5.5-0.8,7.5-2.3c1.9-1.5,3.4-1.9,5.5-1.7c20,1.9,38.6-2.5,54.9-14.3c6.9-5,12.1-12.4,18-18.8c1.6-1.7,3-3.6,4.3-5.6
				c0.9-1.4,2.2-3.1,2.1-4.5c-0.1-1.9-1.1-4.3-2.5-5.5c-0.9-0.7-3.7-0.2-5,0.8c-19.5,14.4-40.8,22.5-65.5,19c-1-0.2-2.1-0.3-3.1-0.5
				c-0.4-0.1-0.7-0.3-2-0.8c3.8-4.5,7.4-8.6,11-12.8c-9.9,4-19,1.1-27.9-1.4c-17-4.8-32.4-13-47.4-22.1c-0.3-0.2-0.5-0.5-0.5-1.2
				c3.3,1.9,6.5,3.9,9.8,5.7c14.1,7.6,28.5,14.3,44.3,17.3c4.4,0.8,9.1,0.8,13.6,0.3c1.8-0.2,4.5-2.5,4.7-4.1
				c0.2-1.7-1.5-4.8-3.2-5.5c-9.2-3.6-18.4-7.4-28-9.7c-13.3-3.3-26.9-5.2-40.3-8c-2-0.4-4.1-2-5.5-3.7
				c-5.3-6.4-10.3-13.1-17.5-17.5c-0.1-0.1-0.2-0.2-0.3-0.2c-7-1.4-6.9-7.2-8.4-12.4c-4.9-17.5-9.9-34.9-15.2-52.2
				c-1.1-3.5-3.2-6.9-5.5-9.9c-1.1-1.5-4-2.9-5.5-2.5c-1.7,0.6-3.9,3.3-3.8,5c0.2,5.7,0.5,11.5,2.2,16.9c5.5,17.9,14.5,34,25.5,49.2
				c0.5,0.7,1.1,1.5,1.6,2.2c0.1,0.2,0.1,0.5,0.2,0.7c-0.2,0-0.5,0.1-0.6,0c-13.3-18.2-25-37.3-30.5-59.5c-0.7-3-1.4-6.2-1.2-9.3
				c0.2-3.1,1.5-6.1,2.4-9.3c-1,0.8-2.5,1.7-3.4,3c-7.3,9.8-17.5,14-29.3,15.3c-2.3,0.3-4.7,0.5-7,0.8c-5.6,0.8-8.2,3.5-7.2,9
				c0.9,5.1,3.3,10,5.1,15c0.5,1.5,1.4,2.8,2.5,4.9c-2.6-0.5-4.2-0.9-5.9-1c-4.7-0.4-6.9,2.6-4.4,6.6c2,3.2,4.8,6.2,7.9,8.5
				c13.3,9.7,28.7,14.8,44.3,19.3c1.4,0.4,2.7,0.8,4,1.2c-0.1,0.3-0.2,0.6-0.3,1c-6.9-2-13.8-3.8-20.6-6.2
				c-11.1-3.9-21.9-8.6-31.3-15.8c-3.6-2.8-6.4-6.6-9.5-10c0.2,0.8,0.3,2.2,0.8,3.5c4.8,12.8,3.7,25.2-2.5,37.3
				c-4.1,8-2,13.6,5.9,18.2c7.2,4.2,14.8,6,23.1,5.9c1.5,0,2.9,0.5,5,0.8c-2.2,3.2-3.9,5.8-5.8,8.4c-5,6.8-10.1,13.6-15.3,20.2
				c-4.5,5.8-10.5,9.7-17.2,12.5C672.6,305.8,672.2,305.9,671.8,306.1"/>
		</g>
		<g>
			<path class="st25" d="M748.8,641.7c-0.7-8.7-7.7-15.5-16.2-15.5c-1.7,0-3.3,0.3-4.8,0.8c-0.7,0.2-1.3,0.5-1.9,0.8
				c-4.2,2-7.4,5.8-8.8,10.4c-0.2,0.7-0.4,1.4-0.5,2.1c-0.2,0.9-0.2,1.9-0.2,2.9c0,9.3,7.2,16.8,16,16.9
				C734.3,649.9,740.9,642.3,748.8,641.7z"/>
			<path class="st25" d="M726.2,625.7c0.1-0.6,0.1-1.2,0.1-1.8c0-8.5-6.6-15.5-14.8-15.5c-0.5,0-1,0-1.5,0.1
				c-0.7,0.1-1.3,0.2-1.9,0.3c-4.5,1.1-8.3,4.4-10.1,8.8c-0.3,0.6-0.5,1.3-0.7,1.9c-0.4,1.4-0.6,2.8-0.6,4.3
				c0,8.5,6.7,15.5,14.8,15.5c1.3,0,2.5-0.2,3.6-0.5C716.5,632.8,720.7,627.9,726.2,625.7z"/>
			<path class="st25" d="M765.5,661c-0.2-0.9-0.3-1.7-0.6-2.6c-1.2-4.5-3.4-8.4-6.2-11.1c-0.6-0.6-1.2-1.1-1.9-1.5
				c-1.9-1.3-4-2.2-6.3-2.3c-0.3,0-0.6,0-0.8,0c-0.3,0-0.6,0-0.9,0c-7,0.5-12.8,7.3-14.7,16.5c-0.1,0.6-0.2,1.2-0.3,1.8
				c-0.2,1.5-0.3,3-0.3,4.6c0,12.7,7.3,23,16.3,23s16.3-10.3,16.3-23C766,664.6,765.8,662.7,765.5,661z"/>
			<path class="st25" d="M790.8,642c-0.1-0.7-0.3-1.4-0.5-2.1c-1.4-4.6-4.6-8.4-8.8-10.4c-0.6-0.3-1.3-0.6-1.9-0.8
				c-1.5-0.5-3.2-0.8-4.8-0.8c-8.9,0-16.2,7.6-16.3,16.9c4.1,3.2,7.2,8.5,8.5,14.9c2.3,1.3,5,2.1,7.8,2.1c9,0,16.3-7.6,16.3-16.9
				C791.1,644,791,643,790.8,642z"/>
			<path class="st25" d="M708.6,606.9c0.2-1,0.3-2,0.3-3c0-7.7-6-14-13.4-14c-0.2,0-0.4,0-0.6,0c-0.8,0-1.5,0.1-2.2,0.3
				c-3,0.7-5.7,2.5-7.6,4.9c-0.5,0.6-0.9,1.3-1.3,2c-1.1,2-1.7,4.3-1.7,6.7c0,7.7,6,14,13.4,14c0.2,0,0.3,0,0.5,0
				C698,612.2,702.8,608,708.6,606.9z"/>
			<path class="st25" d="M810.1,621.3c-0.2-0.7-0.4-1.3-0.7-1.9c-1.9-4.4-5.6-7.7-10.1-8.8c-0.6-0.2-1.3-0.3-1.9-0.3
				c-0.5,0-1-0.1-1.5-0.1c-8.2,0-14.8,6.9-14.8,15.5c0,0.6,0,1.2,0.1,1.8c5.5,2.2,9.7,7.1,11.1,13.2c1.2,0.3,2.4,0.5,3.6,0.5
				c8.2,0,14.8-6.9,14.8-15.5C810.7,624.1,810.5,622.7,810.1,621.3z"/>
			<path class="st25" d="M823.6,598.9c-0.4-0.7-0.8-1.3-1.3-2c-1.9-2.5-4.5-4.2-7.6-4.9c-0.7-0.2-1.5-0.3-2.2-0.3
				c-0.2,0-0.4,0-0.6,0c-7.4,0-13.4,6.3-13.4,14c0,1,0.1,2,0.3,3c5.8,1.1,10.6,5.3,12.6,11c0.2,0,0.3,0,0.5,0
				c7.4,0,13.4-6.3,13.4-14C825.3,603.2,824.7,600.9,823.6,598.9z"/>
			<path class="st25" d="M834.6,578.2c-0.4-0.6-0.7-1.2-1.2-1.7c-2.2-2.6-5.3-4.2-8.8-4.3c-0.1,0-0.1,0-0.2,0
				c-0.6,0-1.2,0.1-1.8,0.2c-5.8,0.9-10.2,6.1-10.2,12.3c0,1.9,0.4,3.7,1.2,5.3c4.6,0.6,8.6,3.3,11,7.1c6.5-0.1,11.8-5.6,11.8-12.5
				C836.4,582.3,835.7,580.1,834.6,578.2z"/>
			<path class="st25" d="M662.7,538.5c1.7-1.2,3.8-1.9,6.1-1.9c1.1,0,2.2,0.2,3.2,0.5c1.3-1.4,2.2-3.4,2.2-5.6c0-4.4-3.5-8-7.7-8
				s-7.7,3.6-7.7,8C658.8,534.5,660.3,537.1,662.7,538.5z"/>
			<path class="st25" d="M835.4,538.9c1-0.3,2.1-0.5,3.2-0.5c2.2,0,4.3,0.7,6.1,1.9c2.3-1.4,3.9-4,3.9-7c0-4.4-3.5-8-7.7-8
				c-4.2,0-7.7,3.6-7.7,8C833.3,535.4,834.1,537.4,835.4,538.9z"/>
			<path class="st25" d="M842.3,560.3c-0.3-0.5-0.6-1.1-1-1.5c-1.9-2.6-4.9-4.2-8.3-4.2c-0.7,0-1.3,0.1-2,0.2
				c-0.6,0.1-1.2,0.3-1.7,0.5c-4,1.6-6.9,5.6-6.9,10.3c0,1.8,0.4,3.5,1.1,4.9c0.3,0,0.6,0,0.9,0c4.5,0,8.5,2.3,11,5.8
				c4.6-1.1,8.1-5.5,8.1-10.7C843.5,563.6,843.1,561.8,842.3,560.3z"/>
			<path class="st25" d="M844.5,542.4c-0.6-0.5-1.2-0.9-1.9-1.3c-1.2-0.6-2.6-1-4-1c-0.5,0-1,0.1-1.5,0.1c-0.7,0.1-1.5,0.3-2.1,0.6
				c-3.2,1.5-5.5,4.8-5.5,8.7c0,1.2,0.2,2.4,0.6,3.5c0.9-0.2,1.8-0.3,2.8-0.3c4.1,0,7.7,2.1,9.9,5.3c2.9-1.6,4.9-4.8,4.9-8.4
				C847.8,546.7,846.5,544.1,844.5,542.4z"/>
			<path class="st25" d="M664.5,556.3c2.2-3.2,5.8-5.3,9.9-5.3c1,0,1.9,0.1,2.8,0.3c0.4-1.1,0.6-2.2,0.6-3.5c0-3.9-2.3-7.3-5.5-8.7
				c-0.7-0.3-1.4-0.5-2.1-0.6c-0.5-0.1-1-0.1-1.5-0.1c-1.4,0-2.8,0.4-4,1c-0.7,0.3-1.3,0.8-1.9,1.3c-2,1.7-3.3,4.4-3.3,7.3
				C659.6,551.5,661.6,554.7,664.5,556.3z"/>
			<path class="st25" d="M682.8,595.4c2.4-3.9,6.4-6.6,11-7.1c0.7-1.6,1.2-3.4,1.2-5.3c0-6.3-4.4-11.4-10.2-12.3
				c-0.6-0.1-1.2-0.2-1.8-0.2c-0.1,0-0.1,0-0.2,0c-3.5,0.1-6.6,1.7-8.8,4.3c-0.4,0.5-0.8,1.1-1.2,1.7c-1.1,1.9-1.8,4.1-1.8,6.5
				C671,589.7,676.3,595.3,682.8,595.4z"/>
			<path class="st25" d="M672,574.4c2.5-3.5,6.5-5.8,11-5.8c0.3,0,0.6,0,0.9,0c0.7-1.5,1.1-3.2,1.1-4.9c0-4.7-2.9-8.7-6.9-10.3
				c-0.5-0.2-1.1-0.4-1.7-0.5c-0.6-0.1-1.3-0.2-2-0.2c-3.4,0-6.4,1.7-8.3,4.2c-0.4,0.5-0.7,1-1,1.5c-0.8,1.6-1.3,3.3-1.3,5.2
				C663.9,568.9,667.4,573.3,672,574.4z"/>
		</g>
	</g>
</g>
</svg>
