<?xml version="1.0" encoding="utf-8"?>
<!-- Generator: Adobe Illustrator 16.0.0, SVG Export Plug-In . SVG Version: 6.00 Build 0)  -->
<!DOCTYPE svg PUBLIC "-//W3C//DTD SVG 1.1//EN" "http://www.w3.org/Graphics/SVG/1.1/DTD/svg11.dtd">
<svg version="1.1" id="Vrstva_1" xmlns="http://www.w3.org/2000/svg" xmlns:xlink="http://www.w3.org/1999/xlink" x="0px" y="0px"
	 width="210.8px" height="290.3px" viewBox="0 0 210.8 290.3" style="enable-background:new 0 0 210.8 290.3;" xml:space="preserve"
	>
<style type="text/css">
<![CDATA[
	.st0{fill:#FFFFFF;stroke:#C69C6D;stroke-width:3;stroke-miterlimit:10;}
	.st1{opacity:0.6;fill:#FFFFFF;}
	.st2{fill:#AE2C38;}
	.st3{fill-rule:evenodd;clip-rule:evenodd;fill:#76531F;}
	.st4{fill:#E6E6E6;}
	.st5{fill:#FFFFFF;stroke:#C69C6D;stroke-miterlimit:10;}
	.st6{fill:#808184;}
	.st7{fill:#FFFFFF;stroke:#C69C6D;stroke-width:2;stroke-miterlimit:10;}
	.st8{fill-rule:evenodd;clip-rule:evenodd;fill:#AE2C38;}
	.st9{fill:#8C6239;}
	.st10{fill:url(#);}
	.st11{fill:none;stroke:#CAA070;stroke-miterlimit:10;}
	.st12{fill:none;stroke:#C69C6D;stroke-width:2;stroke-linecap:round;stroke-miterlimit:10;}
	.st13{fill:#F7E7CE;}
	.st14{fill:#333333;stroke:#333333;stroke-width:0.25;stroke-miterlimit:10;}
	.st15{fill:#C2A473;}
	.st16{fill:#C69C6D;}
	.st17{fill:#2C2C2C;}
	.st18{fill-rule:evenodd;clip-rule:evenodd;}
	.st19{opacity:0.7;}
	.st20{fill:#AE2C38;stroke:#8D1F2A;stroke-miterlimit:10;}
	.st21{fill:#FFFFFF;}
	.st22{fill:none;}
	.st23{fill:#CAA070;}
	.st24{fill:none;stroke:#C69C6D;stroke-miterlimit:10;}
	.st25{fill:#333333;}
	.st26{fill:none;stroke:#C69C6D;stroke-width:2;stroke-linecap:round;stroke-miterlimit:10;stroke-dasharray:2,8;}
	.st27{opacity:0.7;fill:url(#);}
	.st28{fill-rule:evenodd;clip-rule:evenodd;fill:#CAA070;}
	.st29{fill:#FFFFFF;stroke:#CAA070;stroke-miterlimit:10;}
	.st30{fill:#CAA070;stroke:#C69C6D;stroke-miterlimit:10;}
	.st31{clip-path:url(#SVGID_22_);}
	.st32{clip-path:url(#SVGID_24_);}
	.st33{clip-path:url(#SVGID_26_);}
	.st34{fill:none;stroke:#C69C6D;stroke-width:2;stroke-miterlimit:10;}
	.st35{fill-rule:evenodd;clip-rule:evenodd;fill:#333333;}
	.st36{fill-rule:evenodd;clip-rule:evenodd;fill:#333333;stroke:#FFFFFF;stroke-miterlimit:10;}
	.st37{fill-rule:evenodd;clip-rule:evenodd;fill:#FFFFFF;stroke:#333333;stroke-width:0.25;stroke-miterlimit:10;}
	.st38{fill:#76531F;}
	.st39{fill:#A67C52;}
	.st40{fill-rule:evenodd;clip-rule:evenodd;fill:#FFFFFF;stroke:#8D1F2A;stroke-miterlimit:10;}
	.st41{fill-rule:evenodd;clip-rule:evenodd;fill:#AE2C38;stroke:#8D1F2A;stroke-miterlimit:10;}
	.st42{opacity:0.8;fill:url(#);}
]]>
</style>
<g>
	<g id="XMLID_16_">
		<g>
			<path class="st38" d="M128.1,290.2c-0.2,0.2-0.6,0.1-0.4-0.2c8.2-14.8,12.3-30.1,13.8-45.6c-12.9-18.5-39.2-14.5-55.4-30.8
				c-4-4-11-14.5-10.8-22.3c-0.2-0.4-0.4-0.8-0.6-1.2c-0.2-0.6,0.3-1,0.8-0.9c0.3-1.3,0.8-2.5,1.7-3.5c8.5-9.8,26.7,4.3,33.4,9.8
				c13.9,11.3,24.7,23.2,31.4,39.1c0-1.5,0.1-3.1,0-4.6l4.1,0.7c1.4-4.2,3-8.4,4.6-12.6c4-10.2,8.2-22.1,15-30.8
				c4.3-5.4,16.7-19,25.2-13.6c10,6.3,6.8,19.6,2.6,28.4c-9.3,19.4-32,28.3-47,42.2c-0.5,0.5-1.1,0.5-1.6,0.3c0,0.2-0.1,0.4-0.1,0.6
				c0.1,0.4,0.1,0.7-0.1,1C142.4,261.3,137.2,276.1,128.1,290.2z"/>
			<path class="st38" d="M90.1,161.4c-6.3-7.1-9-18.1-1-24.4c0.1-0.1,0.2,0,0.2-0.1c0.1,0,0.1-0.1,0.2-0.1c0.1,0,0.3-0.1,0.4-0.1
				c8.3-3.1,15.1,1.2,20.6,7.7c8.1,9.5,16.5,18.8,23.3,29.2c-1.6-6.3-3.4-12.6-5.2-18.9c-1.9-6.7-3.9-13.6-5.6-20.6
				c-0.1-0.4-0.3-0.9-0.4-1.3l0.8-0.2c0.1,0.4,0.2,0.7,0.3,1.1l2.6-0.7c3.7,13.6,8.4,27,11.9,39.2c-0.1-12.7,1.6-25.5,4.4-37.3
				c2.4-9.7,9.8-23.3,21.3-23.1s12.1,15.3,10.4,22.9c-4.7,20.3-23.1,35.5-30.4,54.8c-0.2,0.7-0.7,0.9-1.2,0.9
				c2.7,13.5,4.1,26.9,3.6,40.1l-4.1-0.7c-0.1-10.7-1.2-21.5-3.1-32.3c-2.7-4.2-4.9-7.8-10.5-11.2c-4.7-2.8-10.3-4.2-15.2-6.8
				C104.9,175,96.5,168.7,90.1,161.4z"/>
			<path class="st38" d="M119.6,83.3c1.2-5.6,3.1-11.1,5.9-16.3l1,0.7c-4.2,8.4-6,17.6-6.1,27c0.1,1.3,0.1,2.5,0.2,3.7
				c0.8-5.7,2.2-11.3,4.4-16.9c3.8-9.4,13-20.3,24.2-16.9c0.3,0,0.6,0.1,0.9,0.4l0,0c0.1,0.1,0.2,0.2,0.3,0.3
				c5.2,5,5.1,10.4,0.8,16.4c-3.3,4.6-7.2,8.6-10.8,13c-7.4,9.1-10.5,21.1-14,32c-0.2,0.7-0.9,0.9-1.5,0.8c0.5,1.8,0.9,3.6,1.4,5.5
				l-2.6,0.7c-0.1-0.4-0.2-0.7-0.3-1.1l-0.8,0.2c-1-3-1.9-5.9-3.6-8.9c-2.8-5.1-5.8-5.7-9-9.7c-4.6-5.8-7.1-11.9-9-19
				c-2.8-10.6-2.8-27.2,4.3-36.4C114.4,47.4,118,66.6,119.6,83.3z"/>
			<path class="st38" d="M131.5,59.6c-2,2.6-3.7,5.4-5,8.2l-1-0.7c2.6-16.5,10.3-33,21.1-45.7c3.9-4.6,15-14.7,20.7-6.3
				c11.5,17.1-25.7,36.2-35.4,44.4C131.8,59.6,131.6,59.6,131.5,59.6z"/>
		</g>
	</g>
	<path class="st38" d="M37.1,96.4c-5,4.1-5.1,8.6-6.5,14.3c-2.4,3.6-3.9,7.6-4.8,11.7c-0.2-1.6-0.6-3.2-1.1-4.8
		c-2-6.3-4.7-15.3-2.9-21.8c0-0.1,0-0.2-0.1-0.3c0-0.1,0.1-0.2,0.1-0.3c0.1-0.2-0.2-0.4-0.4-0.2c-4.1,7-7.8,15-6.1,23.3
		c0.8,4.2,2.4,7.9,4.7,11.5c1.7,2.6,3.2,5.7,5.2,8c0.4,3.8,1.2,7.5,2.2,11.3c0,0.1,0.1,0.2,0.1,0.3c0.6,2.1,1.2,4.3,1.9,6.4
		c-1.5-1.6-3.4-2.9-5.3-3.9c-7.3-4-17.6-0.3-23.7-6.3c-0.2-0.2-0.6,0-0.5,0.3c0.3,0.6,0.6,1.1,1,1.5c2.7,7.4,6.1,12.9,13.2,16.5
		c2.4,1.2,5.1,2.1,7.8,2.4c4,0.5,8.3-0.4,12,1.6c2.5,6,5.3,11.7,7.7,16.8c0.5,1,1,2.1,1.5,3.1c-2.1-2.5-4.6-4.6-8.1-5.9
		c-3.8-1.4-7.5-2.1-11.6-2c-5.5,0.1-8.9,1.2-13-1.9c-0.1-0.1-0.3-0.3-0.4-0.4c-0.6-0.8-1.2-1.5-1.9-2.2c-0.1-0.2-0.5,0-0.4,0.2
		c1.4,4.2,4.4,8.1,7.9,11.4c2.8,3.6,6,6.6,10.7,8.2c7.1,2.4,15,0.8,21.9,3.3c4.4,9.7,8.2,19.7,10.1,30.1c-3-5.6-6.1-10.5-12.6-12.9
		c-3.8-1.4-7.5-2.1-11.6-2c-5.5,0.1-8.9,1.1-13-1.9c-0.1-0.1-0.3-0.3-0.4-0.4c-0.6-0.8-1.2-1.5-1.9-2.2c-0.1-0.2-0.5,0-0.4,0.2
		c1.4,4.2,4.4,8.1,7.9,11.4c2.8,3.6,6,6.6,10.7,8.2c7.2,2.4,15.1,0.8,22,3.3c0.3,2.1,0.5,4.2,0.6,6.4c0.7,17.4-3,35.4-11.3,50.7
		c-0.2,0.4,0.4,0.9,0.7,0.4c5.4-9.6,9.2-19.9,11.1-30.7c0.1-0.1,0.3-0.2,0.3-0.3c0-0.1,0-0.3,0.1-0.5c0.1-0.1,0.2-0.2,0.2-0.3
		c0.2-5.6,14.3-8.9,17.9-12.3c5.2-4.9,7.4-11.8,9.6-18.4c0-0.1,0.1-0.1,0.1-0.1c0.1-0.2-0.2-0.5-0.3-0.3c-6.3,6.4-16.3,5.5-22.6,12
		c-1.7,1.7-2.9,3.7-3.9,5.7c0-4.2-0.3-8.3-0.9-12.4c0-0.1,0-0.1,0-0.2c-0.7-5-1.7-9.8-3.1-14.6c0-0.1,0.1-0.2,0.1-0.3
		c0-0.2-0.1-0.3-0.1-0.5c0.1-0.1,0.1-0.2,0.1-0.3c-0.9-3.8,4.6-7.6,6.9-9.9c2.8-2.8,5.4-5.5,7.3-9c3-5.4,2.6-12.9,2.7-18.8
		c0-0.1,0-0.1,0.1-0.2c0.1-0.3-0.3-0.4-0.4-0.1c-3.9,8.2-13.8,10.9-18.3,19.1c-1.6,2.9-2,6.3-1.8,9.6c-1-2.6-2-5.1-3.2-7.7
		c-2.8-6.3-6-12.5-9-18.8c0,0,0,0,0-0.1c0-0.2-0.1-0.3-0.1-0.5c0.1-0.1,0.1-0.2,0.1-0.3c-0.9-3.8,4.6-7.6,6.9-9.9
		c2.8-2.8,5.4-5.5,7.3-9c3-5.4,2.6-12.9,2.7-18.8c0-0.1,0-0.1,0.1-0.2c0.1-0.3-0.3-0.4-0.4-0.1c-3.9,8.2-13.8,10.9-18.3,19.1
		c-2.2,4.1-2.2,9-1.2,13.6c-3.8-8.2-7.1-16.5-9.1-25.2c-0.1-0.2-0.1-0.5-0.2-0.7c1.9-7.2,12-10,16.5-15.3c3.1-3.7,4.5-7.8,5.4-12.6
		c0-0.1-0.1-0.2-0.2-0.1c0,0,0,0,0,0c0,0,0,0,0,0c0,0,0,0,0,0c0,0,0,0,0,0.1c-0.1,0.2-0.3,0.4-0.4,0.7c-2.5,4-7.2,4.2-11,6.2
		c-2.8,1.4-5.1,3.1-7.2,5.4c-2.6,2.7-3.7,6.3-4.1,10c-1.3-6.5-2.1-13.5-1.1-19.8c0.9-5.5,3.4-9.7,6.4-13.8c3.9-2.4,8.8-2.4,12-6.3
		c3.6-4.4,5.9-9.9,9.3-14.5c0.3-0.4-0.2-0.8-0.6-0.6C48.7,91,41.9,92.4,37.1,96.4z"/>
	<path class="st23" d="M26.4,264.8c0.8,0.4,1.5,1,2.2,1.6c0,0,0,0,0,0c0.1,0.1,0.1,0.1,0.2,0.2c2.7,2.4,5.2,5.8,7.7,8.2
		c0.1,0.1,0.2,0.2,0.4,0.3c0.3,0.4,0.6,0.7,0.9,1.1c1,1.1,2.1,2.6,3.4,3.9c2.6,3.3,5.7,6.6,9.6,7.2c3.1,0.5,5.9,0.1,8.9-0.8
		c0.7-0.2,1.3-0.5,1.9-0.9c3.2-1.4,6.1-4.1,9.2-5.3c0,0,0,0,0.1,0c1.3,0.2,2.6,0.4,3.9,0.7c-4,5.1-8.6,9.8-12.2,15.3
		c-0.2,0.3,0.2,0.6,0.5,0.3c5.6-6.4,11.7-12.4,16.4-19.5c1.4-0.1,2.8-0.1,4.1-0.1l0,0c2.9,1.7,5.4,4.7,8.3,6.6
		c0.5,0.4,1.1,0.8,1.8,1.2c2.8,1.4,5.5,2.2,8.6,2.1c4-0.1,7.5-2.8,10.6-5.7c1.5-1.2,2.8-2.5,3.9-3.4c0.4-0.3,0.7-0.6,1.1-0.9
		c0.1-0.1,0.3-0.2,0.4-0.3c2.8-2,5.8-4.9,8.8-6.9c0.1,0,0.2-0.1,0.2-0.1c0,0,0,0,0,0c0.8-0.5,1.6-1,2.4-1.3c0.3-0.1,0.2-0.6-0.1-0.5
		c-0.5,0.2-1.1,0.3-1.6,0.5c-0.1-0.1-0.1-0.1-0.3-0.1c-4.2,1.2-8.2,1.1-12.3,0.7c-1.5-0.3-3-0.7-4.6-1c-3.2-0.6-6.9-2.3-10.2-1.9
		c-3.6,0.4-6,1.9-8,3.9c-1.3,0.7-2.5,1.5-3.5,2.5c-1.4,1-3.1,2.1-4.3,3.4c-0.1,0-0.3-0.1-0.5-0.1c-1.3-0.3-2.7-0.3-4.1-0.3
		c0.8-1.4,1.6-2.8,2.4-4.2c1.3-2.7,2.5-5.5,3.6-8.3c1-0.5,1.7-1.2,2.7-1.8c0.9-0.5,1.8-0.8,2.6-1.2c1.5-0.8,3-1.6,4.6-2.3
		c0,0,0,0,0,0c3.3,0.3,6.8,2,10.3,2.5c0.7,0.2,1.4,0.3,2.1,0.3c3.1,0,5.9-0.4,8.7-1.7c3.6-1.7,5.6-5.8,7.2-9.7
		c0.8-1.7,1.5-3.5,2.2-4.7c0.2-0.4,0.4-0.8,0.6-1.3c0.1-0.1,0.2-0.3,0.3-0.4c1.8-3,3.2-6.9,5.1-10c0.1-0.1,0.1-0.2,0.2-0.2
		c0,0,0,0,0,0c0.5-0.8,1.1-1.6,1.7-2.2c0.2-0.2-0.1-0.6-0.3-0.4c-0.4,0.4-0.8,0.8-1.3,1.1c-0.1,0-0.2,0-0.3,0
		c-3.3,2.9-7,4.5-10.9,5.9c-1.5,0.3-3,0.7-4.6,1.1c-3.1,0.8-7.2,0.8-10,2.6c-3,1.9-4.7,4.3-5.6,6.9c-0.9,1.2-1.6,2.4-2.1,3.8
		c-0.8,1.5-1.9,3.2-2.5,4.9c-0.2,0-0.3,0.1-0.5,0.1c-2,0.5-3.8,1.5-5.7,2.4c-1.2,0.3-2.7,0.8-3,1.5c-0.2,0.1-0.4,0.3-0.6,0.4
		c1.8-5,3.1-10.1,4-15.3c0,0,0,0,0,0c0.7-0.8,1-1.8,1.7-2.7c0.5-0.7,1.2-1.3,1.7-2c0.9-1.2,1.8-2.5,2.8-3.7c0,0,0,0,0.1,0
		c2.8-1,6.3-1.1,9.3-2c0.6-0.1,1.2-0.3,1.8-0.6c2.6-1.2,4.7-2.6,6.5-4.8c2.3-2.8,2.4-6.9,2.2-10.7c0-1.7-0.1-3.4-0.1-4.7
		c0-0.4,0-0.9,0-1.3c0-0.2,0-0.3,0.1-0.5c0.3-3.1-0.1-6.9,0.3-10.2c0-0.1,0-0.2,0.1-0.3c0,0,0,0,0,0c0.1-0.9,0.3-1.7,0.5-2.4
		c0.1-0.3-0.3-0.5-0.4-0.2c-0.2,0.5-0.4,1-0.6,1.4c-0.1,0-0.2,0-0.2,0.1c-1.6,3.6-4,6.4-6.6,9c-1.1,0.9-2.2,1.7-3.4,2.7
		c-2.3,1.9-5.6,3.5-7.2,6c-1.8,2.8-2.2,5.3-1.9,7.9c-0.3,1.3-0.4,2.6-0.3,3.9c-0.1,1.6-0.3,3.4-0.1,5c-0.1,0.1-0.3,0.2-0.4,0.3
		c-1.4,1.2-2.6,2.7-3.8,4.2c-0.6,0.5-1.2,1.1-1.6,1.6c0.9-7.8,0.8-15.4-0.2-22.7c0.2-0.8,0.3-1.6,0.5-2.4c0.2-0.8,0.6-1.5,0.9-2.3
		c0.5-1.4,0.9-2.8,1.4-4.1c0,0,0,0,0,0c2.2-1.8,5.3-2.9,7.7-4.7c0.5-0.3,1-0.6,1.4-1.1c1.9-1.8,3.4-3.8,4.3-6.3
		c1.1-3.2,0-6.9-1.3-10.2c-0.5-1.5-1.1-3-1.5-4.2c-0.1-0.4-0.3-0.8-0.4-1.1c0-0.1-0.1-0.3-0.1-0.4c-0.7-2.9-2.2-6.1-2.9-9.1
		c0-0.1,0-0.2,0-0.2c0,0,0,0,0,0c-0.2-0.8-0.3-1.6-0.3-2.3c0-0.3-0.4-0.3-0.4,0c0,0.5,0,1-0.1,1.5c-0.1,0-0.1,0.1-0.1,0.2
		c-0.3,3.7-1.5,6.9-3.1,10c-0.7,1.1-1.4,2.2-2.1,3.4c-1.4,2.4-3.9,4.8-4.5,7.6c-0.7,3-0.3,5.4,0.7,7.5c0.2,1.2,0.5,2.4,1,3.5
		c0.4,1.4,0.8,3.1,1.4,4.4c-0.1,0.1-0.2,0.3-0.2,0.4c-0.9,1.5-1.4,3.2-2,4.9c-0.2,0.4-0.4,0.8-0.6,1.2c-1.4-7.9-3.9-15.6-7.1-23.3
		c0.8-2.8,2.4-5.4,3.2-8.2c0.2-0.5,0.4-1.1,0.5-1.7c0.4-2.6,0.4-5.1-0.4-7.6c-1-3.3-4.2-5.4-7.2-7.2c-1.3-0.9-2.7-1.7-3.7-2.4
		c-0.3-0.2-0.7-0.4-1-0.7c-0.1-0.1-0.2-0.2-0.3-0.3c-2.3-1.8-5.4-3.4-7.8-5.4c-0.1-0.1-0.1-0.1-0.2-0.2c-0.6-0.5-1.2-1.1-1.7-1.7
		c-0.2-0.2-0.5,0-0.4,0.2c0.3,0.4,0.5,0.8,0.8,1.2c0,0.1-0.1,0.1,0,0.2c2,3.1,3,6.4,3.6,9.9c0.1,1.3,0.2,2.6,0.4,4
		c0.3,2.8-0.2,6.2,1,8.8c1.6,3.5,5.2,6,8.3,8c0.9,0.6,1.9,1.2,2.8,1.7c0.2,0.1,0.7,0.6,1.2,1c4.3,10.3,7,21.1,7.8,32.1
		c-0.1-0.3-0.3-0.5-0.4-0.8c0-0.7-0.9-1.5-1.7-2.2c-1.1-1.4-2.2-2.8-3.5-3.9c-0.1-0.1-0.2-0.2-0.3-0.3c0.2-1.5,0-3.2-0.1-4.7
		c0.1-1.2,0-2.4-0.2-3.6c0.3-2.4-0.1-4.8-1.7-7.4c-1.5-2.4-4.6-3.9-6.7-5.7c-1.1-0.9-2.1-1.7-3.1-2.6c-2.4-2.5-4.7-5.1-6.1-8.5
		c0-0.1-0.1-0.1-0.2-0.1c-0.2-0.4-0.4-0.9-0.5-1.4c-0.1-0.3-0.5-0.1-0.4,0.2c0.2,0.7,0.4,1.5,0.5,2.3c0,0,0,0,0,0c0,0.1,0,0.1,0,0.2
		c0.3,3.1-0.1,6.7,0.2,9.6c0,0.1,0,0.3,0,0.4c0,0.4,0,0.8,0,1.2c0,1.2-0.1,2.8-0.1,4.4c-0.2,3.6-0.1,7.4,2,10.1
		c1.6,2.1,3.6,3.5,6,4.6c0.6,0.3,1.1,0.4,1.7,0.5c2.8,0.9,6.1,1,8.7,2c0,0,0,0,0,0c0.9,1.1,1.7,2.3,2.6,3.5c0.5,0.7,1.1,1.2,1.6,1.9
		c0.6,0.8,0.9,1.8,1.5,2.5c0.1,0.1,0.2,0.1,0.3,0c0.3,6.1-0.1,12.2-1.1,18.4c-0.1,0.4-0.1,0.7-0.2,1.1c-0.2-0.3-0.4-0.6-0.7-0.8
		c-0.2-0.7-1.3-1.4-2.3-1.9c-1.5-1.2-2.9-2.4-4.5-3.3c-0.1-0.1-0.3-0.2-0.4-0.2c-0.1-1.6-0.7-3.3-1.1-4.8c-0.1-1.3-0.5-2.5-1-3.7
		c-0.2-2.6-1.2-5-3.4-7.3c-2.1-2.2-5.7-3.1-8.3-4.4c-1.3-0.7-2.6-1.3-3.8-2c-3.1-2-6-4.3-8.2-7.5c-0.1-0.1-0.1-0.1-0.2-0.1
		c-0.3-0.4-0.6-0.8-0.9-1.3c-0.2-0.2-0.5,0-0.4,0.3c0.4,0.7,0.7,1.5,1,2.3c0,0,0,0,0,0c0,0.1,0.1,0.2,0.1,0.2c1,3.2,1.4,6.9,2.3,9.9
		c0,0.1,0.1,0.3,0.1,0.4c0.1,0.4,0.2,0.8,0.3,1.3c0.3,1.3,0.5,3,0.9,4.6c0.6,3.8,1.5,7.8,4.3,10.1c2.2,1.8,4.6,2.8,7.3,3.4
		c0.6,0.1,1.3,0.2,1.9,0.2c3.1,0.3,6.6-0.4,9.5,0.1c0,0,0,0,0.1,0c1.2,0.9,2.3,2,3.5,3c0.7,0.6,1.4,1.1,2.1,1.7
		c0.6,0.5,1,1.2,1.6,1.8c-1.3,6.8-3.3,13.6-6.1,20c-0.3-0.8-0.9-1.5-1.5-2c-0.2-0.7-1.6-1.4-2.8-1.9c-1.7-1.1-3.4-2.3-5.3-3.1
		c-0.2-0.1-0.3-0.1-0.5-0.2c-0.3-1.7-1.2-3.6-1.8-5.2c-0.3-1.4-0.8-2.7-1.6-4c-0.5-2.8-1.8-5.3-4.6-7.6c-2.6-2.1-6.6-2.7-9.6-3.9
		c-1.5-0.6-3-1.1-4.4-1.7c-3.6-1.9-7.1-4-10-7.3c-0.1-0.1-0.2-0.1-0.3-0.1c-0.4-0.4-0.7-0.9-1.1-1.3c-0.2-0.2-0.6,0.1-0.4,0.3
		c0.5,0.7,1,1.5,1.4,2.4c0,0,0,0,0,0c0,0.1,0.1,0.1,0.1,0.2c1.5,3.4,2.4,7.5,3.7,10.7c0.1,0.2,0.1,0.3,0.2,0.5
		c0.1,0.5,0.3,0.9,0.4,1.4c0.4,1.3,0.9,3.2,1.5,5c1.1,4.1,2.5,8.3,5.9,10.5c2.6,1.7,5.3,2.5,8.4,2.9c0.7,0.1,1.4,0.1,2.1,0
		c3.5,0,7.2-1.2,10.5-1c0,0,0,0,0,0c1.4,0.9,2.8,1.9,4.2,2.9c0.8,0.6,1.7,1,2.5,1.6c0.8,0.6,1.5,1.4,2.3,2c-1.1,2.3-2.2,4.6-3.6,6.8
		c-1.1,1.8-2.2,3.4-3.5,5c-1.9-0.3-3.9-0.7-5.9-0.6c-0.2,0-0.3,0-0.5,0c-1-1.4-2.5-2.8-3.7-4c-0.8-1.1-1.9-2.1-3-3
		c-1.6-2.3-3.8-4.1-7.3-5.1c-3.2-0.9-7.1,0.3-10.3,0.4c-1.6,0.1-3.2,0.2-4.7,0.3c-4.1-0.2-8.1-0.7-12.1-2.5c-0.1,0-0.2,0-0.3,0
		c-0.5-0.2-1-0.5-1.5-0.7C26.3,264.2,26.1,264.6,26.4,264.8z M46.1,235.8C46.1,235.8,46.1,235.8,46.1,235.8
		C46,235.8,46,235.8,46.1,235.8C46,235.8,46,235.8,46.1,235.8z M59.7,214.5C59.7,214.5,59.7,214.6,59.7,214.5
		C59.7,214.5,59.7,214.5,59.7,214.5C59.7,214.5,59.7,214.5,59.7,214.5z M69.4,189.3C69.4,189.3,69.4,189.3,69.4,189.3
		C69.4,189.3,69.4,189.3,69.4,189.3C69.4,189.3,69.4,189.3,69.4,189.3z M69.7,162.6C69.7,162.6,69.7,162.6,69.7,162.6
		C69.7,162.6,69.7,162.6,69.7,162.6C69.7,162.6,69.7,162.6,69.7,162.6z M100.6,177.8C100.7,177.8,100.7,177.8,100.6,177.8
		C100.7,177.8,100.7,177.8,100.6,177.8C100.7,177.8,100.7,177.8,100.6,177.8z M114.9,207.1C114.9,207.1,114.9,207.1,114.9,207.1
		C114.9,207.1,114.9,207.1,114.9,207.1C114.9,207.1,114.9,207.1,114.9,207.1z M127.5,236.3C127.5,236.3,127.5,236.3,127.5,236.3
		C127.5,236.3,127.5,236.3,127.5,236.3C127.5,236.3,127.5,236.3,127.5,236.3z M120.7,270.9C120.7,270.9,120.7,270.9,120.7,270.9
		C120.7,270.9,120.7,270.9,120.7,270.9C120.7,270.9,120.7,270.9,120.7,270.9z M35,268.6C35,268.6,35.1,268.6,35,268.6
		C35.1,268.7,35.1,268.7,35,268.6C35,268.7,35,268.6,35,268.6z"/>
</g>
</svg>
