<?xml version="1.0" encoding="utf-8"?>
<!-- Generator: Adobe Illustrator 16.0.0, SVG Export Plug-In . SVG Version: 6.00 Build 0)  -->
<!DOCTYPE svg PUBLIC "-//W3C//DTD SVG 1.1//EN" "http://www.w3.org/Graphics/SVG/1.1/DTD/svg11.dtd">
<svg version="1.1" id="Vrstva_1" xmlns="http://www.w3.org/2000/svg" xmlns:xlink="http://www.w3.org/1999/xlink" x="0px" y="0px"
	 width="366px" height="32.5px" viewBox="0 0 366 32.5" style="enable-background:new 0 0 366 32.5;" xml:space="preserve">
<style type="text/css">
<![CDATA[
	.st0{fill:#FFFFFF;stroke:#C69C6D;stroke-width:3;stroke-miterlimit:10;}
	.st1{opacity:0.6;fill:#FFFFFF;}
	.st2{fill:#AE2C38;}
	.st3{fill-rule:evenodd;clip-rule:evenodd;fill:#76531F;}
	.st4{fill:#E6E6E6;}
	.st5{fill:#FFFFFF;stroke:#C69C6D;stroke-miterlimit:10;}
	.st6{fill:#808184;}
	.st7{fill:#FFFFFF;stroke:#C69C6D;stroke-width:2;stroke-miterlimit:10;}
	.st8{fill-rule:evenodd;clip-rule:evenodd;fill:#AE2C38;}
	.st9{fill:#8C6239;}
	.st10{fill:url(#);}
	.st11{fill:none;stroke:#CAA070;stroke-miterlimit:10;}
	.st12{fill:none;stroke:#C69C6D;stroke-width:2;stroke-linecap:round;stroke-miterlimit:10;}
	.st13{fill:#F7E7CE;}
	.st14{fill:#333333;stroke:#333333;stroke-width:0.25;stroke-miterlimit:10;}
	.st15{fill:#C2A473;}
	.st16{fill:#C69C6D;}
	.st17{fill:#2C2C2C;}
	.st18{fill-rule:evenodd;clip-rule:evenodd;}
	.st19{opacity:0.7;}
	.st20{fill:#AE2C38;stroke:#8D1F2A;stroke-miterlimit:10;}
	.st21{fill:#FFFFFF;}
	.st22{fill:none;}
	.st23{fill:#CAA070;}
	.st24{fill:none;stroke:#C69C6D;stroke-miterlimit:10;}
	.st25{fill:#333333;}
	.st26{fill:none;stroke:#C69C6D;stroke-width:2;stroke-linecap:round;stroke-miterlimit:10;stroke-dasharray:2,8;}
	.st27{opacity:0.7;fill:url(#);}
	.st28{fill-rule:evenodd;clip-rule:evenodd;fill:#CAA070;}
	.st29{fill:#FFFFFF;stroke:#CAA070;stroke-miterlimit:10;}
	.st30{fill:#CAA070;stroke:#C69C6D;stroke-miterlimit:10;}
	.st31{clip-path:url(#SVGID_22_);}
	.st32{clip-path:url(#SVGID_24_);}
	.st33{clip-path:url(#SVGID_26_);}
	.st34{fill:none;stroke:#C69C6D;stroke-width:2;stroke-miterlimit:10;}
	.st35{fill-rule:evenodd;clip-rule:evenodd;fill:#333333;}
	.st36{fill-rule:evenodd;clip-rule:evenodd;fill:#333333;stroke:#FFFFFF;stroke-miterlimit:10;}
	.st37{fill-rule:evenodd;clip-rule:evenodd;fill:#FFFFFF;stroke:#333333;stroke-width:0.25;stroke-miterlimit:10;}
	.st38{fill:#76531F;}
	.st39{fill:#A67C52;}
	.st40{fill-rule:evenodd;clip-rule:evenodd;fill:#FFFFFF;stroke:#8D1F2A;stroke-miterlimit:10;}
	.st41{fill-rule:evenodd;clip-rule:evenodd;fill:#AE2C38;stroke:#8D1F2A;stroke-miterlimit:10;}
	.st42{opacity:0.8;fill:url(#);}
]]>
</style>
<g>
	<line class="st34" x1="7.7" y1="25.3" x2="357.7" y2="25.3"/>
	<g>
		<g>
			<path class="st28" d="M184.5,19.4c0.3-0.6,0.3-0.6,0.3-0.8c-0.2-0.2,0.3-0.5,0.3-0.8c-0.2-0.1,0.4-0.4,0.3-0.7
				c0.2-0.3,0.3-0.8,0.3-0.7c0.1-0.4,0.2-0.3,0.3-0.7c0.2,0,0.3-0.3,0.4-0.6c0.4-0.2,0.2-0.4,0.3-0.6c0.1,0,0.2-0.4,0.4-0.7
				c0.3-0.4,0.4-0.1,0.4-0.6c0-0.1,0.4-0.5,0.4-0.6c-0.3-0.1,0.3-0.3,0.5-0.6c0.3-0.2,0.4-0.2,0.6-0.5c0.2-0.2,0.5-0.2,0.7-0.2
				c0.2,0.2,0.6,0,0.6,0.1c0.2,0.1,0.3,0.1,0.4,0.4c0.1,0,0.3,0.4,0.4,0.6c-0.1,0.3,0.1,0.7,0.1,0.8c0.2,0.3-0.1,0.6-0.1,0.6
				c-0.2,0.1-0.2,0.5-0.2,0.6c-0.1,0.1-0.6,0.4-0.5,0.6c-0.1,0.1-0.2,0.3-0.4,0.5c-0.1,0.2-0.4,0-0.4,0.4c-0.1,0.2-0.3,0-0.4,0.5
				c-0.1,0.2-0.7,0.5-0.3,0.5c0,0-0.4,0.4-0.3,0.6c-0.3,0.4-0.5,0.4-0.4,0.5c-0.4,0.2-0.4,0.7-0.5,0.8c-0.2,0.4-0.5,0.5-0.5,0.8
				c0.3,0.3-0.2,0.1-0.5,0.8c0.1,0.3-0.1,1-0.5,0.8c0.2,0.5,0.1,0.2-0.1,0.6c0.2,0.3,0.4-0.2,0.6-0.2c0.2,0.1,0.4-0.3,0.6-0.2
				c0.4-0.2,0.6-0.1,0.6-0.2c0.4-0.3,0.4-0.3,0.6-0.3c0.2,0.4,0.8-0.4,0.7-0.3c0.4-0.3,0.8,0.1,0.8-0.3c0.2,0.3,0.3-0.1,0.7-0.3
				c-0.2,0,0.5-0.2,0.8-0.2c0.2,0.1,0.6,0.1,0.8-0.2c0,0.2,0.6,0,0.8-0.2c0.3-0.1,0.5-0.3,0.8-0.2c0.3,0.3,0.6,0,0.8-0.2
				c0.8,0.1,0.9-0.1,1.5,0.2c0.5,0.3,0.9,0.6,1.3,0.8c0.3,0.3,0.3,0.6,0.3,1.2c0,0.3-0.5,0.7-0.9,1.2c-0.1,0.2-0.5,0.4-1.1,0.4
				c-0.3,0-0.4,0.2-1.1,0.3c-0.3-0.1-0.7-0.3-0.8,0.1c-0.5,0.1-0.6,0.3-0.8,0.1c-0.1,0.1-0.6,0.1-0.8,0.1c-0.2,0.1-0.5,0.3-0.8,0.1
				c-0.4-0.3-0.8-0.3-0.8,0.1c-0.6,0-0.3,0.2-0.8,0c0.2-0.2-0.9,0.1-1,0.1c-1,0.2-0.6,0.2-0.9,0.1c-0.5,0-0.6,0.1-0.9,0.2
				c-0.5-0.2-0.5,0.1-0.9,0.2c-0.2,0.2-0.7,0.1-0.9,0.2c-0.1,0.1-0.3,0.1-0.9,0.3c-0.3,0.1-0.5-0.1-0.6,0.1c-0.1-0.1-0.4,0-0.6,0
				c-0.1,0.1-0.2-0.1-0.6-0.1c-0.2,0.1-0.4-0.2-0.5-0.3c-0.5-0.1-0.4-0.1-0.8-0.4c-0.2-0.1-0.4,0-0.7-0.3c-0.3,0-0.4-0.2-0.7-0.2
				c-0.2-0.1-0.4,0-0.8-0.2c-0.1-0.1-0.3-0.2-0.7-0.1c-0.3,0-0.5-0.2-0.8-0.1c-0.4,0.2-0.5,0-0.8-0.1c-0.2,0-0.4,0-0.8,0
				c-0.4,0.1-0.4,0.4-0.7,0.1c-0.1,0-0.6,0.1-0.7-0.1c-0.3,0-0.5-0.1-0.7,0c-0.4,0.1-0.5,0.2-0.7,0c-0.2-0.1-0.5,0-0.8,0
				c-0.5,0.1-0.6,0-0.7,0c-0.2-0.1-0.4-0.1-0.8-0.1c-0.1-0.1-0.5-0.1-0.7-0.2c-0.3,0-0.5-0.3-0.7-0.3c-0.1-0.2-0.4-0.2-0.6-0.4
				c-0.3,0-0.3-0.6-0.6-0.6c0-0.1-0.2-0.4-0.2-0.6c0-0.2,0.1-0.4,0.3-0.5c0.2-0.2,0.4-0.3,0.7-0.4c0.3-0.1,0.5-0.1,0.8-0.2
				c0.2,0,0.5-0.2,0.7-0.2c0.1,0.2,0.4-0.1,0.7-0.1c0.3,0,0.7-0.2,0.8,0c0.1,0,0.6,0.2,0.7-0.1c0.6,0.1,0.5-0.1,0.8,0.2
				c0.4,0.1,0.9,0.1,1,0.3c0.4,0.1,0.5-0.2,0.9,0.1c0.1,0,0.6-0.1,0.9,0.3c0.3,0.1,0.5,0.3,0.9,0.3c0.3,0.1,0.6,0.3,0.9,0.4
				c0,0.1,0.7,0.2,0.9,0.3c0.2,0.4,0.5,0.2,0.8,0.3c0.2,0.1,0.5,0.2,0.9,0.2c0.2-0.1-0.6-0.9-0.4-0.9c-0.4-0.1-0.6-0.6-0.6-0.6
				c-0.2-0.4-0.4-0.4-0.7-0.5c-0.2,0.1-0.3,0-0.4-0.1c-0.1-0.2-0.2-0.5-0.3-0.6c-0.4-0.3-0.4-0.4-0.7-0.6c-0.3-0.1-0.8-0.5-0.7-0.6
				c0.1,0-0.3-0.3-0.7-0.7c-0.3-0.4-0.8-0.6-0.7-0.5c-0.2-0.5-0.5-0.6-0.6-0.4c-0.3-0.1,0-0.4-0.5-0.5c-0.2-0.2-0.7-0.5-0.6-0.5
				c0,0.1-0.5-0.4-0.4-0.6c-0.3-0.2-0.4-0.4-0.5-0.6c-0.1-0.2-0.1-0.2,0.1-0.3c-0.1-0.2,0.1-0.8,0.2-1c0.6-0.3,0.6-0.6,0.8-0.6
				c0.2,0,0.3-0.1,0.6,0c0.2,0.3,0.6,0.2,0.6,0c0.2,0.2,0.2,0.1,0.6,0.2c0.4,0,0.3,0.1,0.5,0.2c0.1,0.3,0.2,0.2,0.5,0.3
				c-0.1,0.1,0.4,0.1,0.5,0.4c0.1,0.1,0.3,0.5,0.5,0.5c0.1,0.3,0.4,0.3,0.6,0.6c0.2,0.2,0.5,0.4,0.5,0.6c0.3,0.1,0.3,0.5,0.4,0.6
				c0.5,0,0.3,0.3,0.4,0.6c0,0,0.3,0.6,0.5,0.7c0.2,0,0.3,0.3,0.5,0.7c0.1,0.3,0.3,0.4,0.3,0.6c0.1,0.5,0.5,0.2,0.4,0.6
				c-0.1,0.3,0.3,0.5,0.6,0.7c-0.1-0.4,0.1-0.8-0.1-0.7c0.2-0.2-0.2-0.3-0.1-0.6c0.1-0.2-0.1-0.5,0-0.6c0.2-0.3-0.2-0.5-0.1-0.7
				c0.1-0.3,0.1-0.5-0.1-0.5c0.1-0.1-0.2-0.3,0-0.7c-0.3-0.1-0.3-0.4-0.1-0.9c-0.1-0.2,0.1-0.6,0-1c0.1-0.3,0.1-0.7,0-0.9
				c0-0.5,0-0.6,0-0.9c0-0.3-0.1-0.6,0-0.6c0.1-0.1,0.1-0.4,0.1-0.6c0-0.3-0.1-0.4,0.1-0.6c-0.1-0.1,0.1-0.6,0.1-0.6
				c0,0-0.2-0.4,0-0.5c0-0.2,0.1-0.4,0.2-0.7c0.1-0.2,0.2-0.8,0.4-1c0.1-0.1,0.4-0.1,0.8-0.3c0.2,0.1,0.8-0.1,0.9,0.2
				c0.1,0.1,0.5,0.4,0.6,0.9c0,0,0.1,0.5,0.2,0.6c0.1,0,0.2,0.7,0.2,0.8c0.1,0.4,0,0.3,0,0.7c0.1,0-0.5,0.6,0,0.7
				c0.1,0.4-0.1,0.8-0.1,0.9c-0.1,0.2-0.2,0.6,0,0.8c0,0.5,0.1,0.8,0,0.9c0.1,0.3-0.3,0.3-0.1,0.8c-0.1-0.1-0.2,0.3-0.1,0.8
				c-0.1,0.4-0.2,0.3,0,0.8c0.3,0.1,0.1,0.6-0.1,0.8c0.1,0-0.3,0.5-0.1,0.8c0.1,0.6-0.6,0.6,0,0.8c-0.3,0,0.2,0.7,0,0.8
				C184.2,19.4,184.5,19.7,184.5,19.4z"/>
		</g>
	</g>
</g>
</svg>
