<?xml version="1.0" encoding="utf-8"?>
<!-- Generator: Adobe Illustrator 16.0.0, SVG Export Plug-In . SVG Version: 6.00 Build 0)  -->
<!DOCTYPE svg PUBLIC "-//W3C//DTD SVG 1.1//EN" "http://www.w3.org/Graphics/SVG/1.1/DTD/svg11.dtd">
<svg version="1.1" id="Vrstva_1" xmlns="http://www.w3.org/2000/svg" xmlns:xlink="http://www.w3.org/1999/xlink" x="0px" y="0px"
	 width="57.3px" height="34px" viewBox="0 0 57.3 34" style="enable-background:new 0 0 57.3 34;" xml:space="preserve">
<style type="text/css">
<![CDATA[
	.st0{fill:#FFFFFF;stroke:#C69C6D;stroke-width:3;stroke-miterlimit:10;}
	.st1{opacity:0.6;fill:#FFFFFF;}
	.st2{fill:#AE2C38;}
	.st3{fill-rule:evenodd;clip-rule:evenodd;fill:#76531F;}
	.st4{fill:#E6E6E6;}
	.st5{fill:#FFFFFF;stroke:#C69C6D;stroke-miterlimit:10;}
	.st6{fill:#808184;}
	.st7{fill:#FFFFFF;stroke:#C69C6D;stroke-width:2;stroke-miterlimit:10;}
	.st8{fill-rule:evenodd;clip-rule:evenodd;fill:#AE2C38;}
	.st9{fill:#8C6239;}
	.st10{fill:url(#);}
	.st11{fill:none;stroke:#CAA070;stroke-miterlimit:10;}
	.st12{fill:none;stroke:#C69C6D;stroke-width:2;stroke-linecap:round;stroke-miterlimit:10;}
	.st13{fill:#F7E7CE;}
	.st14{fill:#333333;stroke:#333333;stroke-width:0.25;stroke-miterlimit:10;}
	.st15{fill:#C2A473;}
	.st16{fill:#C69C6D;}
	.st17{fill:#2C2C2C;}
	.st18{fill-rule:evenodd;clip-rule:evenodd;}
	.st19{opacity:0.7;}
	.st20{fill:#AE2C38;stroke:#8D1F2A;stroke-miterlimit:10;}
	.st21{fill:#FFFFFF;}
	.st22{fill:none;}
	.st23{fill:#CAA070;}
	.st24{fill:none;stroke:#C69C6D;stroke-miterlimit:10;}
	.st25{fill:#333333;}
	.st26{fill:none;stroke:#C69C6D;stroke-width:2;stroke-linecap:round;stroke-miterlimit:10;stroke-dasharray:2,8;}
	.st27{opacity:0.7;fill:url(#);}
	.st28{fill-rule:evenodd;clip-rule:evenodd;fill:#CAA070;}
	.st29{fill:#FFFFFF;stroke:#CAA070;stroke-miterlimit:10;}
	.st30{fill:#CAA070;stroke:#C69C6D;stroke-miterlimit:10;}
	.st31{clip-path:url(#SVGID_22_);}
	.st32{clip-path:url(#SVGID_24_);}
	.st33{clip-path:url(#SVGID_26_);}
	.st34{fill:none;stroke:#C69C6D;stroke-width:2;stroke-miterlimit:10;}
	.st35{fill-rule:evenodd;clip-rule:evenodd;fill:#333333;}
	.st36{fill-rule:evenodd;clip-rule:evenodd;fill:#333333;stroke:#FFFFFF;stroke-miterlimit:10;}
	.st37{fill-rule:evenodd;clip-rule:evenodd;fill:#FFFFFF;stroke:#333333;stroke-width:0.25;stroke-miterlimit:10;}
	.st38{fill:#76531F;}
	.st39{fill:#A67C52;}
	.st40{fill-rule:evenodd;clip-rule:evenodd;fill:#FFFFFF;stroke:#8D1F2A;stroke-miterlimit:10;}
	.st41{fill-rule:evenodd;clip-rule:evenodd;fill:#AE2C38;stroke:#8D1F2A;stroke-miterlimit:10;}
	.st42{opacity:0.8;fill:url(#);}
]]>
</style>
<g>
	<g>
		<path class="st23" d="M17.4,16c-0.1-0.3-0.3-0.5-0.5-0.6c-0.2-0.1-0.4-0.1-0.7-0.1c-0.2-0.1-0.8-0.8-1.2-0.6
			c-0.4-0.2-0.9-0.2-1.4-0.2c-0.5,0.1-0.8,0-1,0.2c-0.3,0.5-0.6,0.3-1,0.4c-0.5,0.3-0.7,0.4-1.4,0.8c-0.4,0.4-0.9,0.6-1.3,0.8
			c-0.4,0.3-0.9,0.5-1.5,0.5c-0.3,0-0.4,0.3-0.5,0.6c-0.1,0.3,0.2,0.6,0.6,0.5c0.3,0,0.6,0.1,0.8,0.1c0.3,0.2,0.7,0.2,0.8,0.1
			c0.6,0.1,1.1,0.3,1.7,0.4c0.6,0.2,0.9,0.1,1.7,0.4c1.1,0,1,0.2,1.8,0.3c0.2,0,0.5,0.1,1.1-0.1c0.2-0.5,0.5-0.4,0.9-0.5
			c0.1-0.2,0.2-0.4,0.6-0.6c0.1-0.2,0.7-0.4,0.6-0.6c0.2,0,0.6-0.7,0.4-1C17.7,16.6,18,16.4,17.4,16z"/>
	</g>
	<g>
		<path class="st23" d="M38,17.3c-0.1-0.3-0.4-0.2-0.6-0.6c0.3,0,0.5-0.2,0.5-0.2c0.2-0.1,0.7,0,0.6-0.4c0.4-0.4,0.2-0.2,0.5-0.3
			c0.1-0.2,0.3-0.3,0.5-0.4c0.2-0.3,0.4-0.5,0.5-0.4c0.5-0.1,0.5-0.3,0.5-0.3c0.2-0.1,0.5-0.6,0.6-0.6c0.1-0.2,0.3-0.4,0.5-0.7
			c0-0.2,0.1-0.6,0.3-0.7c0-0.5,0.2-0.3,0.3-0.8c-0.3-0.2,0-0.5,0.1-0.8c-0.2-0.1,0-0.6,0.1-0.9c-0.1-0.3,0.1-0.8-0.1-0.8
			c0.1-0.4-0.3-0.4-0.4-0.7c0.1-0.2-0.3-0.3-0.6-0.4c-0.3-0.2-0.7,0-0.9-0.2c-0.2,0.1-0.6,0-0.9-0.1c-0.3-0.1-0.4,0.1-0.7,0
			c-0.4-0.1-0.5-0.2-0.8,0c-0.4-0.1-0.4,0.1-0.8,0c-0.2,0.1-0.5-0.1-0.6,0.1c0,0.1-0.2,0.3-0.3,0.5c-0.1,0.5,0.2,0.7,0.5,0.9
			c0.5-0.1,0.4,0.3,0.6,0.5c0,0.1-0.2,0.5,0,0.8c0.1,0.3,0,0.9-0.2,1c-0.1,0.3-0.3,0.7-0.4,0.9c-0.2,0.3-0.2,0.2-0.5,0.8
			c-0.4,0.2-0.3,0.6-0.7,0.6c-0.2,0.1-0.5,0.6-0.6,0.6c-0.3,0.1-0.6,0.2-1,0.4c-0.3,0.1-0.3,0.4-0.8,0.4c-0.2,0.1-0.7,0-1,0.2
			c-0.3,0.2-0.5-0.1-0.6-0.1c-0.2-0.2-0.4-0.4-0.5-0.3c-0.3,0.1-0.4-0.1-0.7-0.2c-0.2-0.2-0.4-0.2-0.6-0.2c-0.4-0.1-0.8,0.1-1,0.3
			c-0.3-0.2-0.6-0.5-1-0.3c-0.2,0-0.3,0.1-0.6,0.1c-0.2,0.2-0.2,0.1-0.7,0.3c-0.2,0.2-0.3,0.4-0.5,0.3c-0.2,0-0.3,0.2-0.6,0.1
			c-0.4-0.2-0.7-0.2-1-0.2c-0.4,0.1-0.6-0.2-0.8-0.4c-0.3-0.2-0.4-0.2-0.8-0.5c-0.2-0.2-0.5-0.4-0.8-0.5c-0.3-0.3-0.5-0.3-0.6-0.7
			c-0.3-0.3-0.3-0.5-0.6-0.8c-0.1-0.2-0.2-0.6-0.3-1c-0.1-0.3-0.3-0.6-0.3-1c-0.1-0.2,0-0.4,0-0.8c0.1,0.1,0.3-0.4,0.6-0.5
			c0.2-0.1,0.8-0.4,0.5-0.9c0-0.2-0.2-0.4-0.3-0.5C20.7,8,20.5,7.9,20.2,8c-0.3,0-0.6,0-0.8,0c-0.3,0-0.5,0-0.8,0
			c-0.6-0.1-1,0-1.6,0.1c-0.8,0.1-1.1,0.2-1.5,0.6C15.3,9,15.1,9.4,15,10.2c-0.1,0.4,0,1.1,0.2,1.7c0.3,0.6,0.4,0.8,0.6,1.5
			c0,0.3,0.8,1,1.1,1.3c0.2,0.2,0.4,0.3,0.6,0.4c0.2,0.1,0.3,0.2,0.3,0.3c0.1,0.2,0.3,0.3,0.4,0.4c0.2,0.1,0.5,0.2,0.6,0.3
			c0.3,0.2,0.4,0.1,0.6,0.3c0,0,0.1,0.1,0.5,0.3c-0.4,0.6-0.3,0.3-0.6,0.6c-0.4,0.1-0.6,0.3-0.8,0.5c-0.2,0.3-0.4,0.5-0.5,0.8
			c0,0.2-0.1,0.5-0.3,0.9c-0.2,0.3-0.3,0.6-0.4,0.7c-0.1,0.2-0.3,0.6-0.4,0.9c-0.1,0.4,0,0.6,0.1,1c0.1,0.2,0.1,0.4,0.1,0.6
			c0,0.2,0.1,0.5,0.1,0.6c0.1,0.2,0.2,0.4,0.3,0.5c0,0.1,0.3,0.3,0.4,0.5c0.3,0.3,0.3,0.5,0.6,0.6c0.1,0.2,0.4,0.4,0.7,0.4
			c0.3,0.1,0.4,0.2,0.7,0.3c0.3,0.1,0.5,0.1,0.8,0.3c0.2-0.1,0.5-0.1,0.8,0c0.2,0.1,0.7,0.1,0.9,0.1c0.1-0.1,0.4-0.3,0.7-0.2
			c0.4-0.2,0.2-0.2,0.5-0.5c-0.1-0.3,0-0.7,0-0.6c-0.1,0.1-0.4-0.3-0.4-0.5c-0.1-0.2-0.4-0.4-0.4-0.5c-0.2-0.1-0.3-0.1-0.3-0.5
			c-0.1-0.2-0.2-0.4-0.2-0.5c0-0.2,0.1-0.5,0-0.6c0-0.2,0-0.6,0.1-0.7c-0.1-0.3,0.1-0.4,0.1-0.5c0.1-0.3,0.1-0.4,0.2-0.6
			c0.1-0.3,0.3-0.5,0.3-0.8c0.3-0.2,0.4-0.2,0.5-0.5c0.1-0.1,0.2-0.4,0.6-0.5c0.3-0.2,0.3-0.1,0.6-0.2c0.3,0,0.4-0.2,0.5,0
			c0.2-0.1,0.3,0,0.5,0.1c0.2,0.1,0.4,0.2,0.6,0.3c0.2,0.1,0.2,0.1,0.5,0.2c0.1-0.1,0.4,0.1,0.6,0c0.1-0.1,0.3-0.1,0.6-0.2
			c0-0.2,0.3-0.1,0.5-0.4c0.1,0,0.4,0.2,0.5,0.2c0.2,0.1,0.5,0.2,0.6,0.3c0.1,0,0.4,0.1,0.6,0c0.2,0.1,0.5-0.1,0.6-0.2
			c0-0.1,0.3-0.2,0.5-0.3c0.2,0,0.4,0,0.7-0.2c0.1-0.3,0.2-0.1,0.4-0.1c0.2,0.1,0.4,0,0.7,0.3c0.4-0.1,0.2,0.2,0.6,0.3
			c0.3,0.3,0.3,0.5,0.5,0.7c0.4,0.3,0.1,0.6,0.4,0.6c0.3,0.1,0.1,0.4,0.2,0.7c-0.2,0.2,0.1,0.5,0.1,0.6c0,0.3,0.1,0.2,0,0.6
			c0,0.5-0.1,1-0.2,1.1c0.1,0.3-0.3,0.4-0.3,0.5c-0.2,0.3-0.1,0.3-0.4,0.5c-0.2,0.3-0.4,0.3-0.4,0.5c-0.1,0.3,0,0.3,0,0.6
			c0.2,0.2,0.3,0.3,0.5,0.5c0.1,0.3,0.5,0.1,0.7,0.2c0.2-0.1,0.5-0.1,0.8,0c0.1-0.2,0.6,0,0.9-0.1c0.3,0,0.6-0.2,0.8-0.2
			c0.3-0.3,0.5-0.3,0.7-0.4c0.1-0.2,0.5-0.4,0.6-0.4c0.2-0.1,0.4-0.3,0.7-0.6c0.1,0.2,0.3,0,0.4-0.5c0.4-0.3,0.2-0.4,0.3-0.5
			c0-0.3,0-0.5,0.2-0.6c0.2-0.3-0.1-0.2,0-0.6c-0.1-0.2,0.1-0.6-0.1-0.9c0.1-0.1-0.1-0.8-0.2-0.9c-0.1-0.5,0.1-0.4-0.3-0.9
			c0-0.3-0.2-0.7-0.4-0.8c0-0.3-0.4-0.4-0.6-0.7C38.4,18,38,17.5,38,17.3z M16.3,10.6c0-0.6,0.1-1,0.5-1.1C17,9.2,17.4,8.9,18,9.1
			c0.4,0.1,0.5,0.3,0.5,0.7c0,0.2,0,0.5,0,0.7c0,0.2,0,0.5,0.2,0.7c0.1,0.2,0.1,0.4,0.1,0.6c0,0.2,0.1,0.5,0.2,0.7
			c-0.1,0.3,0,0.5,0.1,0.6c0.2,0.2,0.4,0.4,0.5,0.6c0,0.4,0.5,0.7,0.5,0.8c0.3,0.3,0.1,0.5,0.6,0.8c-0.3,0-0.4,0-0.8-0.2
			c-0.3-0.3-0.7-0.2-1-0.4c-0.4-0.1-0.6-0.3-0.8-0.4c-0.2-0.2-0.4-0.4-0.6-0.7c-0.1-0.2-0.7-0.8-1-1.5
			C16.2,11.7,16.2,11.1,16.3,10.6z M21.4,24.5c-0.5-0.1-0.5,0-1-0.1c-0.3-0.2-0.5-0.4-0.9-0.4c-0.3-0.2-0.5-0.4-0.7-0.5
			c-0.1-0.2-0.3-0.4-0.3-0.8c0-0.1,0-0.5,0-0.8c0.1-0.4,0-0.6,0.2-1c0.2-0.1,0.3-0.6,0.4-0.8c0.1-0.3,0.2-0.5,0.3-0.6
			c0.1-0.1,0.3-0.5,0.5-0.6c0.2-0.2,0.5-0.3,0.5-0.4c0.1-0.2,0.4-0.2,0.6-0.2c0.3,0,0.5-0.3,0.6-0.3c0.2,0,0.5-0.1,0.8-0.1
			c0.1,0,0.4-0.2,0.7,0c-0.4,0.2-0.5,0.2-0.7,0.5c-0.2,0.1-0.2,0.2-0.2,0.4c-0.1,0.1-0.3,0.5-0.4,0.7c-0.2,0.2-0.4,0.6-0.4,0.8
			c0,0.1-0.2,0.6-0.3,0.8c0.1,0.3,0,0.3-0.1,0.8c0,0.4-0.2,0.6,0,0.9c-0.2,0.1,0,0.5,0.1,0.8C21.3,23.7,21.2,24.2,21.4,24.5z
			 M37.7,13.8c0.3-0.3,0.1-0.3,0.3-0.6c-0.1-0.3,0.6-0.1,0.3-0.6c0-0.3,0.3-0.5,0.3-0.7c0.2-0.4-0.1-0.3,0.1-0.6
			c0.1-0.2,0.2-0.3,0.1-0.7c0.2-0.3,0.1-0.5,0.1-0.6c0-0.3,0-0.8,0.5-0.7c0.2,0,0.6,0,0.7,0c0.1-0.1,0.3,0,0.5,0.3
			c0,0.1,0.4,0.4,0.4,0.5c0.2,0,0.2,0.3,0.2,0.6c0.3,0.4-0.1,0.3-0.1,0.8c0,0.5,0,0.7-0.2,0.8c-0.2,0.3-0.3,0.8-0.4,0.8
			c-0.5,0.6-0.3,0.6-0.6,0.7c-0.2,0-0.3,0.5-0.6,0.6c-0.3,0.4-0.3,0.4-0.8,0.5c-0.6,0.1-0.7,0-0.9,0.3c-0.1-0.1-0.8,0.2-0.8,0.3
			c-0.1,0.1,0.3-0.4,0.6-0.8C37.3,14.2,37.6,14.2,37.7,13.8z M36,24.5c0-0.3,0.2-0.7,0.2-0.9c-0.1-0.5,0.2-0.8,0.1-0.9
			c0-0.3,0.1-0.7,0-0.9c0.1-0.1-0.2-0.7-0.1-0.8c0-0.4-0.2-0.6-0.3-0.8c0-0.2-0.1-0.6-0.3-0.8c0.2-0.4-0.4-0.7-0.4-0.9
			c-0.5-0.2-0.7-0.4-0.9-0.7c0.2,0,0.6,0.1,0.9,0c0.1-0.1,0.4,0,0.7,0.1c0.3-0.1,0.2,0,0.6,0.1c0.2,0.1,0.3,0.2,0.7,0.4
			c0.2,0.2,0.2,0.5,0.4,0.4c-0.1,0.1,0.3,0.3,0.6,0.5c0.1,0,0.3,0.4,0.5,0.7c-0.3,0.2,0.3,0.4,0.3,0.8c0.1,0.4-0.2,0.6,0.2,1
			c0.2,0.4-0.1,0.5-0.1,0.8c0,0.4-0.2,0.4-0.4,0.7c0,0.3-0.3,0.5-0.6,0.6c-0.2,0.3-0.6,0.3-0.9,0.4C36.7,24.5,36.3,24.4,36,24.5z"/>
	</g>
	<g>
		<path class="st23" d="M49.9,17.2c-0.5-0.1-1-0.4-1.5-0.5c-0.5-0.5-0.9-0.6-1.3-0.8c-0.3-0.3-0.8-0.6-1.4-0.8
			c-0.3-0.1-0.8-0.2-1-0.4c-0.4-0.2-0.5,0.1-1-0.2c-0.4-0.2-0.6,0.1-0.7,0.1c0.1,0.1-0.4,0.1-0.7,0.2c-0.1,0.1-0.2-0.1-0.6,0.2
			c-0.2-0.1-0.1,0.1-0.6,0.3c-0.4,0.2-0.5,0-0.6,0.3c-0.3,0-0.3,0.2-0.6,0.4c-0.4,0.3-0.5,0.7-0.6,0.8c0.2,0.2,0.3,1,0.4,1
			c-0.1,0.4,0.5,0.6,0.6,0.6c0.2,0.4,0.1,0.6,0.6,0.6c0.4,0.3,0.8,0.5,0.9,0.5c0.4-0.1,0.7,0.1,1.1,0.1c0.4-0.1,0.5,0.1,0.9-0.1
			c0.4-0.1,0.5-0.3,0.9-0.2c0.2-0.2,1.1-0.2,1.1-0.3c0.3-0.1,0.9-0.2,1.1-0.3c0.4-0.2,0.9-0.4,1.2-0.2c0.4,0.1,0.6-0.3,0.8-0.1
			c0.2-0.2,0.6-0.1,0.8-0.1c0.3-0.2,0.4,0,0.6-0.5C50.4,17.6,49.9,17.3,49.9,17.2z"/>
	</g>
</g>
</svg>
