<?xml version="1.0" encoding="utf-8"?>
<!-- Generator: Adobe Illustrator 16.0.0, SVG Export Plug-In . SVG Version: 6.00 Build 0)  -->
<!DOCTYPE svg PUBLIC "-//W3C//DTD SVG 1.1//EN" "http://www.w3.org/Graphics/SVG/1.1/DTD/svg11.dtd">
<svg version="1.1" id="Vrstva_1" xmlns="http://www.w3.org/2000/svg" xmlns:xlink="http://www.w3.org/1999/xlink" x="0px" y="0px"
	 width="285.8px" height="246.1px" viewBox="0 0 285.8 246.1" style="enable-background:new 0 0 285.8 246.1;" xml:space="preserve"
	>
<style type="text/css">
<![CDATA[
	.st0{fill:#FFFFFF;stroke:#C69C6D;stroke-width:3;stroke-miterlimit:10;}
	.st1{opacity:0.6;fill:#FFFFFF;}
	.st2{fill:#AE2C38;}
	.st3{fill-rule:evenodd;clip-rule:evenodd;fill:#76531F;}
	.st4{fill:#E6E6E6;}
	.st5{fill:#FFFFFF;stroke:#C69C6D;stroke-miterlimit:10;}
	.st6{fill:#808184;}
	.st7{fill:#FFFFFF;stroke:#C69C6D;stroke-width:2;stroke-miterlimit:10;}
	.st8{fill-rule:evenodd;clip-rule:evenodd;fill:#AE2C38;}
	.st9{fill:#8C6239;}
	.st10{fill:url(#);}
	.st11{fill:none;stroke:#CAA070;stroke-miterlimit:10;}
	.st12{fill:none;stroke:#C69C6D;stroke-width:2;stroke-linecap:round;stroke-miterlimit:10;}
	.st13{fill:#F7E7CE;}
	.st14{fill:#333333;stroke:#333333;stroke-width:0.25;stroke-miterlimit:10;}
	.st15{fill:#C2A473;}
	.st16{fill:#C69C6D;}
	.st17{fill:#2C2C2C;}
	.st18{fill-rule:evenodd;clip-rule:evenodd;}
	.st19{opacity:0.7;}
	.st20{fill:#AE2C38;stroke:#8D1F2A;stroke-miterlimit:10;}
	.st21{fill:#FFFFFF;}
	.st22{fill:none;}
	.st23{fill:#CAA070;}
	.st24{fill:none;stroke:#C69C6D;stroke-miterlimit:10;}
	.st25{fill:#333333;}
	.st26{fill:none;stroke:#C69C6D;stroke-width:2;stroke-linecap:round;stroke-miterlimit:10;stroke-dasharray:2,8;}
	.st27{opacity:0.7;fill:url(#);}
	.st28{fill-rule:evenodd;clip-rule:evenodd;fill:#CAA070;}
	.st29{fill:#FFFFFF;stroke:#CAA070;stroke-miterlimit:10;}
	.st30{fill:#CAA070;stroke:#C69C6D;stroke-miterlimit:10;}
	.st31{clip-path:url(#SVGID_22_);}
	.st32{clip-path:url(#SVGID_24_);}
	.st33{clip-path:url(#SVGID_26_);}
	.st34{fill:none;stroke:#C69C6D;stroke-width:2;stroke-miterlimit:10;}
	.st35{fill-rule:evenodd;clip-rule:evenodd;fill:#333333;}
	.st36{fill-rule:evenodd;clip-rule:evenodd;fill:#333333;stroke:#FFFFFF;stroke-miterlimit:10;}
	.st37{fill-rule:evenodd;clip-rule:evenodd;fill:#FFFFFF;stroke:#333333;stroke-width:0.25;stroke-miterlimit:10;}
	.st38{fill:#76531F;}
	.st39{fill:#A67C52;}
	.st40{fill-rule:evenodd;clip-rule:evenodd;fill:#FFFFFF;stroke:#8D1F2A;stroke-miterlimit:10;}
	.st41{fill-rule:evenodd;clip-rule:evenodd;fill:#AE2C38;stroke:#8D1F2A;stroke-miterlimit:10;}
	.st42{opacity:0.8;fill:url(#);}
]]>
</style>
<g>
	<g>
		<g>
			<path class="st23" d="M148.8,206.9c-0.7,0.3-1.4,0.6-2.2,0.9c-0.1-0.1-0.2-0.1-0.4-0.1c-5.6,2.1-11.2,2.4-16.8,2.3
				c-2.1-0.2-4.2-0.6-6.4-0.8c-4.4-0.5-9.7-2.4-14.2-1.5c-4.8,1-8.1,3.2-10.5,6.2c-1.7,1.1-3.2,2.3-4.5,3.8c-1.8,1.5-4,3.2-5.5,5.1
				c-0.2,0-0.4-0.1-0.7-0.1c-2.7-0.3-5.4,0.1-8.1,0.3c-1.5-2.3-3-4.7-4.3-7.1c-1.6-3.1-3-6.2-4.2-9.5c1.2-0.7,2.2-1.8,3.4-2.5
				c1.1-0.7,2.4-1.2,3.5-1.9c2-1.2,4-2.5,6-3.5c0,0,0,0,0.1,0c4.5,0.1,9.6,2,14.3,2.4c0.9,0.2,1.9,0.3,2.9,0.2
				c4.3-0.2,8.1-1,11.8-3.1c4.8-2.7,7.2-8.3,9-13.7c1-2.4,1.8-4.8,2.5-6.6c0.2-0.6,0.5-1.2,0.7-1.8c0.1-0.2,0.2-0.4,0.3-0.6
				c2.1-4.2,3.7-9.7,6.1-14.1c0.1-0.1,0.1-0.2,0.2-0.3c0,0,0,0,0,0c0.6-1.1,1.3-2.2,2.1-3.1c0.3-0.3-0.2-0.8-0.5-0.5
				c-0.5,0.6-1.1,1.1-1.6,1.7c-0.1,0-0.3,0-0.4,0.1c-4.2,4.2-9.2,6.7-14.4,8.9c-2,0.6-4,1.2-6.2,1.9c-4.2,1.4-9.8,1.7-13.5,4.4
				c-4,2.9-6,6.2-7,9.9c-1.1,1.7-2,3.4-2.5,5.2c-1,2.1-2.3,4.5-2.9,6.8c-0.2,0.1-0.5,0.1-0.7,0.2c-2.7,0.9-5.1,2.4-7.6,3.7
				c-1.6,0.5-3.6,1.3-4,2.3c-1,0.7-1.8,1.5-2.3,2.6c-3.3-8.9-5.3-18.3-6.5-27.6c0.8-0.7,1.4-1.6,2.3-2.2c1-0.7,2-1.3,3-2
				c1.7-1.3,3.3-2.6,5.1-3.8c0,0,0.1,0,0.1,0c4.1-0.3,8.8,0.9,13.1,0.8c0.9,0.1,1.7,0.1,2.6-0.1c3.8-0.6,7.2-1.7,10.3-3.9
				c4-2.9,5.7-8.2,6.8-13.2c0.6-2.2,1.1-4.5,1.6-6.2c0.2-0.6,0.3-1.1,0.5-1.7c0.1-0.2,0.2-0.4,0.2-0.6c1.5-4,2.4-9,4.1-13.2
				c0.1-0.1,0.1-0.2,0.1-0.3c0,0,0,0,0,0c0.5-1.1,1-2.1,1.6-3c0.2-0.3-0.2-0.7-0.5-0.4c-0.4,0.6-0.9,1.1-1.3,1.7
				c-0.1,0-0.2,0-0.3,0.1c-3.4,4.1-7.6,6.9-12,9.4c-1.7,0.8-3.6,1.5-5.4,2.3c-3.7,1.6-8.7,2.5-11.8,5.2c-3.3,3-4.8,6.1-5.4,9.6
				c-0.8,1.6-1.5,3.3-1.8,5c-0.7,2-1.6,4.3-2,6.4c-0.2,0.1-0.4,0.2-0.6,0.3c-2.3,1.1-4.4,2.6-6.5,4.1c-1.3,0.6-3,1.5-3.3,2.4
				c-0.4,0.3-0.7,0.7-1,1.1c-0.1-0.5-0.1-1-0.2-1.5c-0.9-8.4-0.8-16.8,0.1-25c0.1,0.1,0.3,0.1,0.5,0c1-1,1.5-2.2,2.3-3.3
				c0.7-0.9,1.6-1.6,2.3-2.5c1.3-1.5,2.5-3,3.9-4.4c0,0,0,0,0.1-0.1c3.7-1.1,8.2-0.9,12.2-1.9c0.8-0.1,1.6-0.3,2.4-0.6
				c3.4-1.3,6.2-3,8.7-5.6c3.1-3.4,3.6-8.6,3.6-13.4c0.1-2.1,0.1-4.3,0.3-6c0-0.5,0.1-1.1,0.1-1.6c0-0.2,0.1-0.4,0.1-0.6
				c0.6-3.9,0.4-8.8,1.1-12.9c0-0.1,0-0.2,0.1-0.3c0,0,0,0,0,0c0.2-1.1,0.5-2.1,0.9-3.1c0.1-0.3-0.4-0.6-0.5-0.3
				c-0.3,0.6-0.6,1.2-0.9,1.8c-0.1,0-0.2,0-0.3,0.2c-2.3,4.5-5.6,7.8-9.2,10.9c-1.5,1-3,2-4.5,3.2c-3.1,2.2-7.5,4-9.7,7.1
				c-2.5,3.4-3.2,6.6-3,9.8c-0.4,1.6-0.7,3.3-0.6,4.9c-0.2,2-0.6,4.3-0.5,6.3c-0.2,0.1-0.3,0.2-0.5,0.4c-1.9,1.4-3.5,3.3-5.1,5
				c-1.1,0.8-2.4,1.9-2.5,2.8c-0.2,0.3-0.4,0.7-0.6,1c2.1-14.8,6.9-29.1,13.7-42.6c0.7-0.5,1.5-1.1,1.8-1.2c1.4-0.6,2.7-1.3,4.1-2.1
				c4.4-2.4,9.7-5.4,12.2-10c1.8-3.4,1.5-8.1,2.2-11.8c0.3-1.9,0.6-3.7,0.9-5.4c1.3-4.5,2.9-9,5.9-13c0.1-0.1,0.1-0.2,0-0.3
				c0.4-0.5,0.8-1,1.2-1.5c0.2-0.3-0.2-0.6-0.5-0.3c-0.7,0.8-1.5,1.4-2.4,2.1c-0.1,0.1-0.2,0.2-0.3,0.2c-3.4,2.5-7.9,4.4-11.2,6.6
				c-0.2,0.1-0.3,0.2-0.5,0.3c-0.5,0.3-1,0.5-1.4,0.8c-1.4,0.8-3.4,1.8-5.3,2.8c-4.4,2.2-8.9,4.8-10.6,9.1
				c-1.4,3.4-1.6,6.6-1.3,10.2c0.1,0.8,0.3,1.6,0.5,2.3c0.8,3.9,2.8,7.4,3.6,11.3c-5.2,10-9.3,20.3-11.9,30.8
				c-0.2-0.6-0.5-1.1-0.7-1.6c-0.7-2.3-1.3-4.6-2.3-6.7c-0.1-0.2-0.2-0.4-0.3-0.5c1-1.8,1.7-4,2.3-5.9c0.8-1.4,1.3-3,1.7-4.7
				c1.6-2.8,2.4-6,1.7-10.1c-0.6-3.8-3.8-7.3-5.5-10.7c-0.9-1.7-1.8-3.3-2.6-4.8c-1.8-4.4-3.2-8.9-3.3-13.9c0-0.1-0.1-0.2-0.2-0.3
				c0-0.7,0-1.3,0-2c0-0.4-0.5-0.4-0.6,0c-0.1,1-0.3,2.1-0.6,3.1c0,0,0,0,0,0c0,0.1,0,0.2-0.1,0.3c-1.2,4.1-3.6,8.3-4.8,12.1
				c-0.1,0.2-0.1,0.4-0.2,0.6c-0.2,0.5-0.4,1-0.7,1.5c-0.6,1.5-1.6,3.5-2.5,5.5c-2.1,4.3-4.1,9.2-2.8,13.6c1,3.5,2.8,6.2,5.2,8.9
				c0.6,0.6,1.2,1.1,1.9,1.6c3.1,2.6,7.3,4.4,10.1,7.1c0,0,0,0,0,0c0.6,1.9,1,3.8,1.5,5.7c0.3,1.1,0.7,2.1,1,3.2
				c0.3,1.1,0.2,2.2,0.5,3.3c-2.1,9.9-2.9,20.1-2.4,30.7c-0.5-0.8-1.3-1.6-2-2.3c-1.5-2-2.9-4.2-4.8-6c-0.2-0.2-0.3-0.3-0.5-0.4
				c0.4-2.1,0.3-4.6,0.3-6.7c0.3-1.7,0.2-3.5,0-5.3c0.6-3.4,0.2-6.9-1.9-10.8c-2-3.6-6.4-6-9.4-8.8c-1.5-1.4-3-2.7-4.4-3.9
				c-3.4-3.8-6.4-7.8-8.3-12.8c0-0.1-0.2-0.2-0.3-0.2c-0.2-0.7-0.5-1.3-0.7-2c-0.1-0.4-0.7-0.2-0.6,0.2c0.3,1.1,0.4,2.2,0.5,3.4
				c0,0,0,0,0,0c0,0.1,0,0.2,0,0.4c0.2,4.5-0.6,9.5-0.5,13.8c0,0.2,0,0.4,0,0.6c0,0.6-0.1,1.2-0.1,1.7c-0.1,1.7-0.4,4.1-0.5,6.4
				c-0.6,5.1-0.8,10.7,2.1,14.7c2.2,3.1,5.1,5.3,8.5,7.1c0.8,0.4,1.6,0.7,2.5,0.9c4,1.5,8.9,1.9,12.6,3.5c0,0,0,0,0.1,0.1
				c1.3,1.7,2.3,3.5,3.5,5.2c0.7,1,1.5,1.9,2.1,2.9c0.8,1.2,1.1,2.6,2,3.8c0,0,0,0,0,0c0.7,7.1,2.1,14.1,4.1,21
				c-0.2-0.2-0.5-0.4-0.8-0.6c-0.4-1-2.4-1.7-4-2.3c-2.5-1.3-4.9-2.8-7.6-3.7c-0.2-0.1-0.5-0.2-0.7-0.2c-0.6-2.3-1.9-4.7-2.9-6.8
				c-0.5-1.8-1.4-3.6-2.5-5.3c-1-3.7-3-7-7-9.9c-3.7-2.7-9.3-3-13.5-4.4c-2.1-0.7-4.2-1.3-6.2-1.9c-5.2-2.2-10.1-4.8-14.4-8.9
				c-0.1-0.1-0.2-0.1-0.4-0.1c-0.5-0.5-1.1-1.1-1.6-1.7c-0.3-0.3-0.8,0.2-0.5,0.5c0.8,0.9,1.5,2,2.1,3.1c0,0,0,0,0,0
				c0.1,0.1,0.1,0.2,0.2,0.3c2.4,4.4,3.9,9.8,6.1,14c0.1,0.2,0.2,0.4,0.3,0.6c0.2,0.6,0.5,1.2,0.7,1.8c0.7,1.8,1.5,4.3,2.5,6.6
				c1.8,5.4,4.3,11,9,13.7c3.7,2.1,7.6,2.9,11.8,3.1c1,0,1.9-0.1,2.9-0.2c4.8-0.4,9.8-2.3,14.3-2.4c0,0,0,0,0.1,0
				c2.1,1.1,4,2.4,6,3.5c1.1,0.7,2.4,1.2,3.5,1.9c1.3,0.8,2.2,1.9,3.5,2.6c1.2,3.9,2.6,7.8,4.2,11.5c0.9,2,1.8,4,2.8,5.9
				c-1.9-0.1-3.8-0.2-5.6,0c-0.2,0-0.4,0.1-0.6,0.1c-1.6-1.8-3.8-3.5-5.6-5c-1.2-1.4-2.8-2.7-4.5-3.7c-2.5-2.9-5.7-5.1-10.6-6
				c-4.5-0.9-9.7,1.1-14.1,1.7c-2.2,0.3-4.3,0.6-6.4,0.9c-5.6,0.2-11.2-0.1-16.8-2.1c-0.2-0.1-0.3,0-0.4,0.1
				c-0.7-0.3-1.4-0.5-2.2-0.8c-0.4-0.2-0.6,0.4-0.2,0.6c1.1,0.5,2.2,1.2,3.2,2c0,0,0,0,0,0c0.1,0.1,0.2,0.1,0.3,0.2
				c4,3,7.7,7.3,11.5,10.2c0.2,0.1,0.4,0.3,0.5,0.4c0.5,0.4,0.9,0.9,1.4,1.3c1.4,1.3,3.2,3.2,5.1,4.9c4,4.1,8.5,8.2,14,8.6
				c4.3,0.3,8.1-0.5,12-2.1c0.9-0.4,1.7-0.9,2.5-1.4c4.2-2.3,7.9-6.2,12-8.1c0,0,0,0,0.1,0c1.9,0.1,3.8,0.3,5.7,0.5
				c5.8,10,13.6,18.6,20.6,27.8c0.3,0.4,0.9,0.1,0.6-0.4c-4.4-7.7-10.2-14.5-15.3-21.8c1.8-0.2,3.6-0.5,5.4-0.6c0,0,0.1,0,0.1,0
				c4.1,1.9,7.9,5.7,12.1,8c0.8,0.5,1.6,1,2.5,1.4c4,1.5,7.8,2.3,12.1,1.9c5.5-0.5,10-4.7,13.9-8.8c1.9-1.8,3.6-3.7,5-5
				c0.5-0.4,0.9-0.9,1.4-1.4c0.2-0.1,0.4-0.3,0.5-0.4c3.7-3,7.3-7.3,11.3-10.4c0.1-0.1,0.2-0.1,0.3-0.2c0,0,0,0,0,0
				c1-0.8,2.1-1.5,3.2-2C149.5,207.3,149.3,206.7,148.8,206.9z M124.8,166.6C124.8,166.6,124.8,166.6,124.8,166.6
				C124.8,166.6,124.9,166.6,124.8,166.6C124.9,166.6,124.8,166.6,124.8,166.6z M108,136.7C108,136.7,108,136.6,108,136.7
				C108.1,136.6,108.1,136.6,108,136.7C108.1,136.6,108.1,136.6,108,136.7z M97.1,101.7C97.1,101.7,97.1,101.7,97.1,101.7
				C97.1,101.7,97.1,101.6,97.1,101.7C97.1,101.6,97.1,101.7,97.1,101.7z M99.2,65.5C99.2,65.5,99.2,65.5,99.2,65.5
				C99.2,65.6,99.2,65.5,99.2,65.5C99.2,65.5,99.2,65.5,99.2,65.5z M55.3,83.3C55.3,83.3,55.3,83.2,55.3,83.3
				C55.3,83.2,55.3,83.3,55.3,83.3C55.3,83.3,55.3,83.3,55.3,83.3z M13.1,159.9C13.1,159.9,13,159.8,13.1,159.9
				C13,159.8,13.1,159.8,13.1,159.9C13.1,159.9,13.1,159.9,13.1,159.9z M136.9,212C136.8,212,136.8,212,136.9,212
				C136.9,212,136.9,212,136.9,212C136.9,212,136.9,212,136.9,212z M33,121.5C33,121.5,33,121.5,33,121.5
				C33,121.5,33,121.5,33,121.5C33,121.5,33,121.5,33,121.5z M19.2,207.1C19.1,207.1,19.1,207.1,19.2,207.1
				C19.1,207.1,19.1,207.1,19.2,207.1C19.2,207.1,19.2,207.1,19.2,207.1z"/>
		</g>
	</g>
	<g>
		<g>
			<path class="st3" d="M255.8,73.5c-0.5-1.5-1.1-1.3-1.9-1.4c0.1-0.5-0.6-1.2-2-1.4c-1-0.4-1.9-0.4-2-1.4c-0.7-0.2-1.5-1.6-1.6-1.2
				c-0.8-0.1-1-0.9-1.7-1.4c-0.9,0-0.6-0.7-1.6-1.2c-0.8-0.6-1.4-1-1.7-1.4c-0.5,0.2-1.5-1.1-1.8-1.6c-0.3-0.1-1.3-1.4-1.7-1.5
				c-0.6-1-1.5-1.2-1.7-1.5c-0.3-0.5-0.2-0.2-1.1-1c0.3-0.6-0.5-1-1.1-1c-0.2,0-0.9-1.3-1.3-1.1c-0.7-0.3-0.1-0.5-0.9-0.9
				c-0.4-0.3-0.6-0.8-0.9-0.9c-0.7-0.6-0.7-0.5-1.4-1.1c-0.6-0.5-0.8-0.5-1.5-1.1c-0.8-0.7-0.9-0.8-1.4-1.2
				c-0.6-0.3-1.1-0.5-1.6-0.9c-0.4-0.3-1.4-0.5-1.6-1c-0.6-0.1-1.2-0.4-1.7-0.8c-0.5-0.1-1.1-0.3-1.7-0.7c-0.1-0.6-0.9,0-1.7-0.4
				c-1.2-0.1-1.7,0.8-1.7,0.5c-0.3,0.1-1.4,0.6-2,1c-1,0.4-1,0.5-1.5,0.9c-0.9,0.3-1.2,0.1-1.7,0.7c-0.8,0.4-1,0.9-1.9,1
				c-0.6,0.6-1.2,0.8-1.7,0.9c-0.8,0-1.3,0.6-2,0.7c-1-0.4-1.2,0.2-2,0.5c-0.5,0.1-0.9,0.6-1.5,1.1c-0.4,0.4-1.3,0.6-1.4,0.9
				c-0.6-0.2-0.9,0.6-1.2,0.9c0.1,0.7-0.7,1.1-0.8,1.4c-0.4,0.3-0.4,0.9-0.6,1.5c0.2,0.9-0.4,1.1-0.6,1.7c-0.6,0.3-0.8,0.8-1.2,1.3
				c-0.5,0.3-1.1,0.6-1.9,0.9c-0.8-0.1-1.2,0.1-1.8-0.1c-0.3-0.3-1.2-0.5-1.6-0.9c-0.1-0.3-0.6-1-1.1-1.7c-0.2-1-0.8-1.2-0.5-2
				c0.1-1,0.2-1.1,0.1-1.7c0-0.4,0.3-1,0.4-1.5c0.2-0.7,1.1-1.1,1.2-1.2c0.5-0.8,0.8-0.5,1.4-0.8c0.5-0.6,0.7-0.4,2-0.3
				c1.1,0.1,1.7,0,2.3-0.1c0.6-0.2,1.2-0.3,1.8-0.5c0.1,0,1-0.1,1.7-0.4c0.7-0.4,1.2-0.5,2.2-0.9c0.5-0.6,1-0.2,1.8-0.9
				c0.7-0.3,1.5-0.2,1.8-0.6c0.8-0.8,1.4-0.5,1.9-0.8c0.3-0.5,1.6-0.5,1.9-0.8c0.5-0.4,1.1-0.2,2.1-0.6c1.2-0.8,1.4-1.1,1.9-1.2
				c-1-0.2-1.8-0.5-2.1-0.5c-0.6-0.2-1.3-0.4-1.5-0.6c-0.6,0-1.2,0.1-1.7-0.1c-0.8,0-0.7-0.2-1.6,0.3c-0.2-0.1-2.4,0.6-1.7,0.5
				c-0.5,0.2-0.9-0.1-1.7,0.3c-0.6,0.4-1.9,0.5-1.9,0c-0.3-0.4-0.5-0.9-1-1.2c0-0.2-0.2-0.8-0.5-1.2c0.1-0.5-0.4-1.3,0.1-1.9
				c0-0.7,0.1-1.5,0.6-1.8c-0.2-0.6,0.2-0.2,1.2-1.1c0.7,0.1,0.9-0.4,1.4-0.7c0.5-0.2,1-0.8,1.7-0.6c0.3,0,1-0.2,1.5-0.1
				c0.5,0.1,1.3,0.3,1.3,0.6c0.6,0.5,0.3,0.8,1.2,1c0.5,0.4,0.5,0.6,0.5,1.3c0,1,0.9,1.4,1.3,1.5c1.2,0.6,1.7,0.3,1.8,0.7
				c0.4,0.5,1.7,1.2,2,1c0.2,0.2,2,0.2,1.9,0.2c0.5,0.4,1.8,0.7,2.1,0.6c0.7,0.2,1.3,0.6,1.9,0.7c0.9,0.1,1.8-0.3,1.7,0.7
				c0.7-0.3,0.7,0.5,1.7,0.8c0.8,0.5,1.2,0.7,1.6,1c0.7,0.1,1,0.5,1.6,0.8c0.5,0.2,0.9,0.7,1.8,1c0.7,0.6,1.4,0.7,1.3,1.1
				c0.5-0.3,1.1,0.3,1.5,0.8c0.6,0.4,1.3,0.7,1.3,1.6c0.8-0.1,0.9,1,1.1,1c0.8,1.1,0.6,0.6,1.7,0.5c-0.1-1.4,0.5-0.6-0.2-1.8
				c-0.7-0.3,0.3-1.4-0.1-1.8c0.4,0,0.6-0.8,0-1.7c0.1-0.7-0.1-1.6-0.3-1.9c-0.5,0-0.5-1-0.3-1.9c-1.1-0.3-0.8-1-0.3-1.7
				c-0.2-0.1,0.3-1.7-0.5-2.3c-0.1,0.1,0.1-1.1-0.3-2.3c0-0.7-0.4-1.6-0.2-1.8c0,0,0.1-0.7-0.3-1.8c0-0.5-0.2-1.7-0.6-1.6
				c-0.1-1-0.3-0.8-1.1-1.8c-0.9-0.6-0.2-1.4-0.9-2c-0.1-0.7-0.2-1.5-0.1-1.9c0.1-0.8,0-1.4,1-1.7c0.6-0.7,1.1-0.8,1.8-1.2
				c0.2-0.3,0.6-0.9,1.5-0.5c0.5-0.5,0.8,0.1,1.4,0c0.6,0.2,2.2,0.8,2.3,1.4c0.5-0.1,1,1,0.8,1.3c0.3,0.7,0.3,1.6,0.4,1.7
				c0.5,0.5-0.5,1.3-0.1,1.6c-0.6,0.6-0.3,0.8-0.8,1c-0.6,0.3-0.9,0.8-1.6,1.5c0.5,0.5,0,1.2-0.3,1.8c0.1-0.2-0.2,1.1,0,1.8
				c-0.4,0.7,0.5,1.5,0.2,1.8c0.5,1.2,0.3,1,0.3,1.7c0.5,1,0.6,0.5,0.2,1.7c-0.7,0.3,0.1,1.8,0.3,1.8c0.1,0,0.1,0.8,0.4,1.9
				c0.7-1.5,1,0.3,1.6-0.9c0.4-0.2,1.2-1.3,1.3-1c-0.4,0.2,1.2-0.1,1.3-0.8c0.5-0.5,1.2-0.2,1.3-0.9c1.1-0.8,0.4-1.9,0.8-2.6
				c0.4-0.5,0-2.1,0.5-2c0.3-0.2,0.2-1.3,1.2-1.7c0.6-0.8,1.2-1.5,1.6-1.2c0.3-0.2,1.3-0.4,1.9-0.6c0.8,0.2,1.5,0.2,2.5,0.6
				c0.5,0.5,1.8,1,1.9,2c0.4,0.6,0.6,2,0.4,2.6c-0.4,0.5-0.5,1.8-1.3,2.3c-0.2,0.2-1.2,0.7-1.5,1c-1.3,0.4-0.8,0.4-1.7,0.5
				c-0.6,0.3-1.4,0.2-2,0.6c-0.4,0.7-1.4,0.8-1.9,0.9c-1,1.1-1.1,0.6-1.6,1.3c0.3,0.2-1.4,1.4-1.7,1.1c-0.2,0-1.3,1.4-1.7,1.5
				c0.1,1.3-1.5,0.9-0.9,1.6c-0.8,1.2-0.5,1.5-0.5,2c-0.2,0.5-0.3,1,0,2c0.7,0.8,0,0.8,0.3,1.9c0.5,0.5,0.9,1.3,0.4,1.8
				c0.7,0.2,0.4,2.2,0.6,1.7c0.6,0.4,0.6,2,0.9,1.5c-0.1,0.2,1,1,1.2,1.4c0.4-0.1,0.6,1.3,1.7,1.3c0.8,0,1.7,1.1,1.9,1.3
				c0.4,1.3,1.6,1.2,2.1,1.4c0.7,0.1,1.2,1.1,2,1.3c0.8,0.1,0.8,1.2,1.9,1.5c0.6,1.3,0.9,1.1,2,1.5c0.5,0.4,1.8,0.6,2.1,1.2
				c0.1-0.2,1.1,0.9,2.1,1.2c1.3,0.3,1.5,0.4,2.2,1.1c0.3-0.2,1.1-0.4,1.7,0.7c0.2,0.3,1,1.2,1.8,0.7c0.9-0.1,1.3,0.3,1.8,0.6
				c0.5,0.4,1.3,0.5,1.8,0.5c0.4,0.2,1,0.2,1.8,0.5c0.7,0.3,1.3,0.2,1.9,0.4c0.7,0,1.3,0.1,1.9,0.2c0.6,0.1,1.2,0.2,1.9,0.4
				c1.4,0.2,2,0.1,3.6,0.5c1.5,0,2.4,0.9,3.6,0.5c0.8,0.3,1.8,0.1,1.9,1.2c-0.2,1.4-1.3,1.6-2.1,1.4c-1.3,0.1-1.8-0.4-3.4,0
				c-1.3,0-1.9,0.1-3.3-0.3c-1.2,0-2.2-0.2-3.3-0.4c-0.9-0.4-1.9,0.1-2.7-0.4c-1-0.3-2-0.7-2.6-0.8c-0.4,0-0.7-0.9-1.9-0.6
				c-0.7-0.3-1.6-0.4-1.9-0.4c-0.8,0-1.5-1.1-2-0.3c-1,0-1.3-0.3-2-0.1c-0.7,0.3-0.6,0.4-2-0.1c-0.6,0.6-1,0.2-2,0
				c-0.6,0.1-1.4-0.2-2,0.1c-0.5-0.3-0.9,0-1.9-0.2c-1.7,0.8-2-0.6-2.1,0.4c-0.4,0.1-1.3,1.4-1.5,1.5c-0.4,0.8-0.3,1.2-0.7,1.5
				c-0.2,0.7-0.9,0.9-0.9,1.3c-0.2,0.2-1.1,0.7-0.6,1.2c-0.4,0-1,1.1-0.9,1.6c-1.5,1-0.5,0.9-0.9,1.6c-0.4,0.1,0.3,0.3-0.5,1.3
				c-1,1.3-0.4,1-0.1,1.6c-0.3,0.8,1.1,1.4,0.4,1.5c0.4,0.1-0.4,1.6,0.1,1.3c-0.1,0.9-0.5,0.9-0.6,1.6c-0.2,0.7-1.2,1.2-2,1.9
				c-0.1,0-1.1-0.1-1.5,0.3c-0.3,0.4-1.2,0.2-1.6-0.1c-0.6-0.1-0.8-0.2-1.7-0.5c-0.8-0.6-0.9-0.9-1.1-1c-0.3-0.2-0.3-1-0.7-1.6
				c-0.5-0.4,0-0.8-0.2-1.1c0.3-0.8,0.2-0.7,0.5-1.6c-0.4-0.7,0.9-0.3,1-0.9c0.8-0.9,0.7-1.2,1.6-1.2c0.1-0.6,1.2-0.9,1.4-1.4
				c0.7,0,0.9-0.4,0.9-1.3c0.4,0,0.7-1.5,1.5-1.8c0.2-0.7,0.4-1.8,0.8-1.5c0.5-1,1.1-1.5,1.4-1.7c0.4-0.6,1.5-1.4,0.6-1.9
				c0-0.3-1.2-0.1-2.1-0.6c-0.5-0.1-0.5,0.2-1.6,0.1c-1.3,0.3-1.2,0.4-1.8,0.1c-0.9,0.1-0.6,0.1-1.6,0.3c-0.3,0.3-1.3-0.8-1.8-0.1
				c-0.8,0.2-0.6,1-1.4,0.7c-0.2,0.3-1,0.1-1.7-0.2c-0.7-0.4-0.8,0.1-1.4,0.6c-0.7,0.6-0.5,1-1.1,1.4c-0.4-0.2-1.2,0.6-1.4,1.3
				c-0.8,0.3-1.5,0.6-2.1,0.5c-0.3,0.3-1.3,0.2-1.9,0c-0.9-0.3-1.6-0.3-1.7-1.1c-0.8-1.1-0.4-1.1-1-1.8c-0.3-0.6-0.6-1-0.2-1.6
				c-0.3,0,0.1-0.7,0.3-1.8c0.4-0.6,0.6-1,1-1.8c0.4-0.7,0.7-0.9,1.3-0.9c0.4,0.1,0.5-0.5,1.2-0.5c0.3,0.5,1,0.2,1.4,0.3
				c0.6,0.5,1.1,0,1.6,0.5c1,0.6,1.1,1.3,2.1,1c1.1-0.3,1.8,0.1,2.3,0.2c1,0.4,1.6-0.1,2,0.2c0.7-0.5,1.3-0.3,2.1-0.4
				c0.4,0.4,1.6-0.6,2,0c0.9-0.4,1.5-0.3,2.1-0.3c0.9,0.3,1.2,0.3,2.2-0.2c1.6,0.3,1.8-0.3,2-0.1c0.4,0.2,1.3,0.2,1.9,0
				c0.7-0.4,1.8,0,2.4-0.2c1.2,0,0.7,0.1,2.3-0.1C254.8,73.7,254.8,73.7,255.8,73.5z"/>
		</g>
	</g>
	<g id="XMLID_15_">
		<g>
			<path class="st38" d="M285.7,245.8c0,0.3-0.4,0.4-0.5,0.1c-3.5-16.6-10.4-30.8-19.5-43.5c-21.9-5.6-39.2,14.7-62,13
				c-5.7-0.4-17.8-3.7-22.8-9.8c-0.4-0.2-0.8-0.3-1.2-0.6c-0.6-0.3-0.4-0.9,0.1-1.2c-0.6-1.2-1-2.4-1-3.8c0-13,23-14.2,31.6-14.5
				c17.9-0.6,33.8,1.4,49.4,9c-1-1.2-2-2.3-3-3.5l3.6-2.2c-1.7-4.1-3.3-8.3-4.7-12.5c-3.6-10.3-8.3-22-8.8-33.1
				c-0.3-6.9,0.1-25.3,10.1-26.8c11.7-1.7,18,10.3,20.6,19.8c5.7,20.8-5.7,42.3-7.9,62.7c-0.1,0.7-0.5,1.1-1.1,1.3
				c0.1,0.2,0.2,0.3,0.3,0.5c0.4,0.2,0.5,0.5,0.5,0.9C277.6,214.7,283.4,229.3,285.7,245.8z"/>
			<path class="st38" d="M260.4,188.9l-3.6,2.2c-7.1-8.1-15-15.5-23.5-22.4c-4.8-1.4-8.8-2.7-15.3-1.6c-5.4,0.9-10.5,3.6-15.9,4.8
				c-9.4,2.1-19.9,2.8-29.5,1.5c-9.4-1.2-18.7-7.8-16.7-17.8c0-0.1,0.1-0.1,0.1-0.2c0-0.1,0-0.1,0.1-0.2c0.1-0.1,0.2-0.2,0.2-0.3
				c4.3-7.8,12.2-9,20.6-7.7c12.3,1.8,24.8,3.4,36.8,6.7c-5.4-3.7-10.8-7.4-16.3-10.9c-5.8-3.8-11.8-7.7-17.7-11.8
				c-0.4-0.2-0.8-0.5-1.2-0.7l0.4-0.7c0.3,0.2,0.6,0.4,0.9,0.6l1.5-2.3c11.7,7.8,24,14.8,34.7,21.8c-8.4-9.5-15.6-20.3-21.1-31
				c-4.6-8.9-7.8-24,0.9-31.4c8.7-7.4,19.2,3.6,22.8,10.5c9.7,18.4,5.8,41.9,12.9,61.3c0.2,0.7,0,1.2-0.4,1.5
				C242.2,169.4,252.1,178.6,260.4,188.9z"/>
			<path class="st38" d="M179,130l-0.4,0.7c-2.7-1.6-5.3-3.2-8.5-4.4c-5.5-2-8.1-0.5-13.1-1.4c-7.3-1.4-13.2-4.3-19.2-8.5
				c-9.1-6.2-20-18.7-20.6-30.3c-0.8-14.6,14.6-2.5,26.8,9.1c-2.8-5-4.9-10.4-6.2-16.2l1.2-0.1c2.3,9.1,7,17.2,13.1,24.4
				c0.9,0.9,1.8,1.8,2.5,2.6c-3.1-4.8-5.8-10-7.8-15.7c-3.3-9.6-3.5-23.8,7.2-28.6c0.2-0.2,0.5-0.3,0.9-0.3h0c0.2,0,0.3,0,0.4,0
				c7.2,0.4,10.6,4.5,11.4,11.9c0.6,5.7,0.2,11.3,0.4,16.9c0.3,11.7,5.9,22.8,10.5,33.4c0.3,0.7-0.1,1.3-0.6,1.6
				c1.6,1.1,3.1,2.1,4.7,3.2l-1.5,2.3C179.6,130.4,179.3,130.2,179,130z"/>
			<path class="st38" d="M138.8,78.9l-1.2,0.1c-8.8-14.1-13.8-31.7-14-48.3c-0.1-6.1,1.7-21,11.5-18.3c19.9,5.4,4.3,44.2,2.4,56.7
				c0,0.2-0.1,0.2-0.2,0.3C137.5,72.7,138,75.9,138.8,78.9z"/>
		</g>
	</g>
	<path class="st29" d="M63.9,217.4c0.7,0.4,1.4,0.9,2.1,1.5c0,0,0,0,0,0c0.1,0,0.1,0.1,0.2,0.2c2.5,2.3,4.8,5.4,7.1,7.6
		c0.1,0.1,0.2,0.2,0.3,0.3c0.3,0.3,0.6,0.7,0.9,1c0.9,1,2,2.4,3.1,3.6c2.4,3,5.3,6.1,8.9,6.7c2.8,0.5,5.5,0.1,8.2-0.8
		c0.6-0.2,1.2-0.5,1.8-0.8c2.9-1.3,5.6-3.8,8.5-4.9c0,0,0,0,0.1,0c1.2,0.2,2.4,0.4,3.6,0.7c-3.7,4.7-7.9,9.1-11.3,14.1
		c-0.2,0.3,0.2,0.5,0.4,0.3c5.2-5.9,10.8-11.5,15.1-18c1.3-0.1,2.5-0.1,3.8-0.1l0,0c2.6,1.5,5,4.3,7.7,6.1c0.5,0.4,1,0.8,1.6,1.1
		c2.6,1.3,5.1,2,8,2c3.7,0,7-2.6,9.8-5.2c1.3-1.1,2.6-2.3,3.6-3.1c0.3-0.3,0.7-0.6,1-0.8c0.1-0.1,0.3-0.2,0.4-0.3
		c2.6-1.8,5.3-4.6,8.2-6.4c0.1,0,0.1-0.1,0.2-0.1c0,0,0,0,0,0c0.7-0.5,1.5-0.9,2.3-1.2c0.3-0.1,0.2-0.5-0.1-0.4
		c-0.5,0.2-1,0.3-1.5,0.5c-0.1-0.1-0.1-0.1-0.2-0.1c-3.8,1.1-7.6,1-11.4,0.7c-1.4-0.3-2.8-0.6-4.3-0.9c-2.9-0.6-6.4-2.2-9.4-1.8
		c-3.3,0.4-5.6,1.7-7.4,3.6c-1.2,0.6-2.3,1.4-3.2,2.3c-1.3,0.9-2.8,2-4,3.1c-0.1,0-0.3-0.1-0.4-0.1c-1.2-0.2-2.5-0.3-3.8-0.3
		c0.8-1.3,1.5-2.5,2.2-3.9c1.2-2.5,2.4-5.1,3.4-7.7c0.9-0.4,1.6-1.1,2.5-1.6c0.8-0.4,1.6-0.7,2.4-1.1c1.4-0.7,2.8-1.5,4.2-2.1
		c0,0,0,0,0,0c3,0.3,6.3,1.8,9.5,2.3c0.6,0.2,1.3,0.3,1.9,0.3c2.9,0,5.5-0.3,8.1-1.6c3.3-1.6,5.2-5.3,6.7-8.9c0.8-1.6,1.4-3.2,2-4.4
		c0.2-0.4,0.4-0.8,0.6-1.2c0.1-0.1,0.2-0.3,0.2-0.4c1.6-2.8,2.9-6.4,4.7-9.3c0.1-0.1,0.1-0.1,0.2-0.2c0,0,0,0,0,0
		c0.5-0.7,1-1.4,1.5-2c0.2-0.2-0.1-0.6-0.3-0.3c-0.4,0.4-0.8,0.7-1.2,1.1c-0.1,0-0.2,0-0.3,0c-3,2.6-6.5,4.2-10,5.4
		c-1.4,0.3-2.8,0.6-4.2,1c-2.9,0.7-6.7,0.7-9.3,2.4c-2.8,1.8-4.3,3.9-5.2,6.4c-0.8,1.1-1.5,2.3-1.9,3.5c-0.8,1.4-1.8,3-2.3,4.5
		c-0.2,0-0.3,0.1-0.5,0.1c-1.8,0.5-3.5,1.4-5.3,2.2c-1.1,0.3-2.5,0.7-2.8,1.4c-0.2,0.1-0.4,0.3-0.5,0.4c1.6-4.6,2.9-9.3,3.7-14.1
		c0,0,0,0,0,0c0.7-0.7,1-1.7,1.5-2.5c0.5-0.7,1.1-1.2,1.6-1.9c0.9-1.1,1.7-2.3,2.6-3.4c0,0,0,0,0,0c2.6-1,5.9-1,8.6-1.8
		c0.6-0.1,1.1-0.3,1.7-0.5c2.4-1.1,4.4-2.4,6-4.4c2.1-2.6,2.2-6.4,2.1-9.9c0-1.6-0.1-3.2-0.1-4.4c0-0.4,0-0.8,0-1.2
		c0-0.1,0-0.3,0.1-0.4c0.3-2.9-0.1-6.4,0.3-9.4c0-0.1,0-0.2,0-0.3c0,0,0,0,0,0c0.1-0.8,0.3-1.6,0.5-2.3c0.1-0.2-0.3-0.4-0.4-0.2
		c-0.2,0.5-0.4,0.9-0.5,1.3c-0.1,0-0.2,0-0.2,0.1c-1.5,3.3-3.7,5.9-6.1,8.3c-1,0.8-2,1.6-3.1,2.5c-2.1,1.7-5.2,3.2-6.7,5.6
		c-1.6,2.5-2,4.9-1.8,7.3c-0.3,1.2-0.4,2.4-0.3,3.6c-0.1,1.4-0.3,3.1-0.1,4.6c-0.1,0.1-0.2,0.2-0.3,0.3c-1.3,1.1-2.4,2.5-3.5,3.8
		c-0.5,0.4-1.1,1-1.5,1.5c0.9-7.2,0.8-14.2-0.2-21c0.2-0.7,0.2-1.5,0.5-2.3c0.2-0.7,0.6-1.4,0.8-2.2c0.4-1.3,0.8-2.6,1.3-3.8
		c0,0,0,0,0,0c2-1.7,4.9-2.7,7.1-4.3c0.5-0.3,0.9-0.6,1.3-1c1.8-1.7,3.1-3.5,3.9-5.8c1.1-3,0-6.4-1.2-9.4c-0.5-1.4-1-2.8-1.4-3.8
		c-0.1-0.4-0.2-0.7-0.4-1.1c0-0.1-0.1-0.3-0.1-0.4c-0.7-2.6-2-5.6-2.7-8.4c0-0.1,0-0.1,0-0.2c0,0,0,0,0,0c-0.1-0.7-0.3-1.5-0.3-2.2
		c0-0.2-0.4-0.3-0.4,0c0,0.5,0,0.9-0.1,1.3c-0.1,0-0.1,0.1-0.1,0.2c-0.3,3.4-1.4,6.4-2.8,9.3c-0.6,1-1.3,2.1-2,3.2
		c-1.3,2.2-3.6,4.5-4.2,7c-0.6,2.8-0.3,5,0.7,7c0.2,1.1,0.4,2.3,0.9,3.3c0.4,1.3,0.7,2.9,1.3,4.1c-0.1,0.1-0.2,0.2-0.2,0.4
		c-0.8,1.4-1.3,3-1.9,4.5c-0.2,0.3-0.4,0.7-0.6,1.1c-1.3-7.3-3.6-14.5-6.6-21.5c0.7-2.6,2.2-5,2.9-7.6c0.2-0.5,0.3-1,0.4-1.5
		c0.4-2.4,0.3-4.7-0.4-7c-1-3-3.9-5-6.7-6.7c-1.2-0.8-2.5-1.6-3.4-2.2c-0.3-0.2-0.6-0.4-0.9-0.6c-0.1-0.1-0.2-0.2-0.3-0.3
		c-2.1-1.7-5-3.2-7.2-5c-0.1-0.1-0.1-0.1-0.2-0.2c-0.6-0.5-1.1-1-1.5-1.6c-0.2-0.2-0.5,0-0.3,0.2c0.3,0.4,0.5,0.7,0.8,1.1
		c0,0.1-0.1,0.1,0,0.2c1.9,2.9,2.7,5.9,3.4,9.1c0.1,1.2,0.2,2.4,0.4,3.7c0.3,2.6-0.2,5.7,0.9,8.1c1.5,3.2,4.8,5.5,7.7,7.4
		c0.9,0.6,1.7,1.1,2.6,1.6c0.2,0.1,0.7,0.6,1.1,0.9c3.9,9.5,6.5,19.5,7.2,29.7c-0.1-0.2-0.2-0.5-0.4-0.7c0-0.6-0.9-1.4-1.6-2
		c-1-1.3-2-2.6-3.2-3.6c-0.1-0.1-0.2-0.2-0.3-0.3c0.2-1.4,0-3-0.1-4.3c0.1-1.1,0-2.2-0.2-3.4c0.3-2.2-0.1-4.4-1.6-6.8
		c-1.4-2.2-4.3-3.6-6.2-5.3c-1-0.8-2-1.6-2.9-2.4c-2.2-2.3-4.3-4.7-5.6-7.9c0-0.1-0.1-0.1-0.2-0.1c-0.2-0.4-0.3-0.8-0.5-1.3
		c-0.1-0.2-0.4-0.1-0.4,0.2c0.2,0.7,0.3,1.4,0.4,2.1c0,0,0,0,0,0c0,0.1,0,0.1,0,0.2c0.3,2.9-0.1,6.1,0.2,8.9c0,0.1,0,0.3,0,0.4
		c0,0.4,0,0.7,0,1.1c0,1.1-0.1,2.6-0.1,4.1c-0.2,3.3-0.1,6.8,1.8,9.3c1.5,1.9,3.4,3.2,5.6,4.2c0.5,0.2,1,0.4,1.6,0.5
		c2.6,0.8,5.7,0.9,8.1,1.8c0,0,0,0,0,0c0.8,1,1.6,2.1,2.4,3.2c0.5,0.6,1,1.2,1.4,1.8c0.5,0.8,0.8,1.6,1.4,2.3c0.1,0.1,0.2,0.1,0.3,0
		c0.2,5.6-0.1,11.3-1.1,17c-0.1,0.3-0.1,0.7-0.2,1c-0.2-0.3-0.4-0.5-0.6-0.8c-0.2-0.6-1.2-1.3-2.1-1.8c-1.3-1.1-2.7-2.2-4.2-3.1
		c-0.1-0.1-0.3-0.1-0.4-0.2c-0.1-1.5-0.7-3.1-1-4.5c-0.1-1.2-0.5-2.3-0.9-3.5c-0.2-2.4-1.1-4.6-3.2-6.8c-1.9-2-5.2-2.8-7.6-4.1
		c-1.2-0.7-2.4-1.2-3.5-1.8c-2.9-1.9-5.5-4-7.6-6.9c-0.1-0.1-0.1-0.1-0.2-0.1c-0.3-0.4-0.5-0.8-0.8-1.2c-0.1-0.2-0.5,0-0.3,0.2
		c0.4,0.6,0.7,1.4,0.9,2.1c0,0,0,0,0,0c0,0.1,0.1,0.1,0.1,0.2c1,2.9,1.3,6.4,2.1,9.2c0,0.1,0.1,0.3,0.1,0.4c0.1,0.4,0.1,0.8,0.2,1.2
		c0.3,1.2,0.5,2.8,0.8,4.3c0.5,3.5,1.4,7.2,4,9.3c2,1.7,4.2,2.6,6.8,3.2c0.6,0.1,1.2,0.2,1.8,0.2c2.9,0.3,6.1-0.4,8.8,0.1
		c0,0,0,0,0.1,0c1.1,0.9,2.1,1.9,3.2,2.8c0.6,0.5,1.3,1,1.9,1.5c0.5,0.5,0.9,1.1,1.4,1.6c-1.2,6.3-3,12.6-5.6,18.5
		c-0.3-0.7-0.8-1.3-1.4-1.9c-0.2-0.7-1.5-1.3-2.5-1.7c-1.6-1-3.2-2.1-4.9-2.9c-0.1-0.1-0.3-0.1-0.5-0.2c-0.3-1.6-1.1-3.3-1.7-4.8
		c-0.3-1.3-0.8-2.5-1.4-3.7c-0.5-2.6-1.7-4.9-4.3-7.1c-2.4-2-6.1-2.5-8.9-3.6c-1.4-0.6-2.8-1.1-4.1-1.6c-3.4-1.7-6.6-3.7-9.2-6.7
		c-0.1-0.1-0.2-0.1-0.2-0.1c-0.3-0.4-0.7-0.8-1-1.2c-0.2-0.2-0.5,0.1-0.3,0.3c0.5,0.7,0.9,1.4,1.3,2.2c0,0,0,0,0,0
		c0,0.1,0.1,0.1,0.1,0.2c1.4,3.1,2.2,6.9,3.4,9.9c0.1,0.1,0.1,0.3,0.2,0.4c0.1,0.4,0.3,0.8,0.4,1.3c0.4,1.2,0.8,3,1.4,4.6
		c1,3.8,2.4,7.7,5.4,9.7c2.4,1.6,4.9,2.3,7.8,2.7c0.7,0.1,1.3,0.1,1.9,0c3.2,0,6.7-1.1,9.7-1c0,0,0,0,0,0c1.3,0.8,2.6,1.8,3.9,2.7
		c0.7,0.5,1.5,0.9,2.3,1.5c0.8,0.6,1.4,1.3,2.2,1.9c-1,2.1-2.1,4.2-3.3,6.3c-1,1.6-2.1,3.2-3.2,4.7c-1.8-0.3-3.6-0.6-5.4-0.6
		c-0.2,0-0.3,0-0.5,0c-0.9-1.3-2.3-2.6-3.4-3.7c-0.8-1-1.7-2-2.8-2.8c-1.5-2.1-3.6-3.8-6.7-4.7c-3-0.8-6.6,0.2-9.6,0.4
		c-1.5,0.1-2.9,0.2-4.3,0.2c-3.8-0.2-7.5-0.7-11.1-2.4c-0.1,0-0.2,0-0.3,0c-0.5-0.2-0.9-0.4-1.4-0.7
		C63.8,216.9,63.7,217.3,63.9,217.4z M82.1,190.6C82.1,190.7,82.1,190.7,82.1,190.6C82.1,190.6,82.1,190.6,82.1,190.6
		C82.1,190.6,82.1,190.6,82.1,190.6z M94.7,171C94.7,171,94.7,171,94.7,171C94.7,171,94.7,171,94.7,171C94.7,171,94.7,171,94.7,171z
		 M103.7,147.6C103.7,147.6,103.7,147.6,103.7,147.6C103.7,147.6,103.7,147.6,103.7,147.6C103.7,147.6,103.7,147.6,103.7,147.6z
		 M103.9,122.9C103.9,122.9,103.9,122.9,103.9,122.9C103.9,122.9,103.9,122.9,103.9,122.9C103.9,122.9,103.9,122.9,103.9,122.9z
		 M132.5,137C132.6,137,132.6,137,132.5,137C132.6,137,132.6,137,132.5,137C132.6,137,132.6,137,132.5,137z M145.7,164.1
		C145.8,164.1,145.8,164.1,145.7,164.1C145.8,164.1,145.8,164.1,145.7,164.1C145.8,164.1,145.7,164.1,145.7,164.1z M157.3,191.1
		C157.4,191.1,157.4,191.1,157.3,191.1C157.4,191.1,157.4,191.1,157.3,191.1C157.3,191.1,157.3,191.1,157.3,191.1z M151.1,223
		C151.1,223,151.1,223,151.1,223C151.1,223,151.1,223.1,151.1,223C151.1,223.1,151.1,223,151.1,223z M71.9,221
		C71.9,221,71.9,221,71.9,221C71.9,221,71.9,221,71.9,221C71.9,221,71.9,221,71.9,221z"/>
	<g>
		<g>
			<path class="st28" d="M262.8,243.3c-0.2-1.6-0.6-4.3-1-5.5c-0.7-1.7-0.6-3.5-1.2-5.3c-0.1-1.6-0.6-3.2-1.8-4.9
				c0.1-1.3-1.6-2.9-2.9-4.5c-0.9-0.7-0.9-2.2-2.5-2.6c-0.5-0.6-2.7-1-3.8-0.7c-0.9,1-2.6-1-3.4-1.6c-1.3-1-2.8-3.4-1.4-3.8
				c-0.5,0,0.7-1.2,1-2.2c0-0.1,1.2-1.1,2.1-1.2c0.7-0.7,1.5-0.3,2.3,0.4c0.7,0,1.6,0.9,1.3,1.8c-0.3,1.7,1.4,2.7,2.1,3.8
				c0.7,1.9,1.5,2.7,2.7,3.4c0.6,1.2,1.2,2.5,2.7,3.4c0.7,0,0.7,1.4,1.7,1.1c1,0.1,0.2-0.7,0.8-1.6c0.6-1.9,0.9-2.4,0.9-3.8
				c-0.2-0.7,1.5-2.1,1.4-3.6c1-1.7,1.7-2.5,2-3.4c1.4-1.5,1.8-0.9,2.3-2.5c0.8-0.2,1.8-1.5,2.7-2c0.7-0.4,2-1.4,2.9-0.8
				c1-0.1,2.2,0.9,2.8,1.2c1.1,0.9,2,2.4,1.7,2.4c-0.1,0.6,0.3,1.5-0.5,2.6c-0.3,0.9-1.8,1.6-2.6,1.9c-0.6-0.5-1.6,0.2-3.1-0.6
				c-1.8-1.5-2.6-1.9-3.6-1.5c-0.9-0.4-1.5,1.2-2.4,3c-0.8,1.5-1,3-2,4.5c-0.6,1.5-0.7,3.5-1.1,4.7c-0.2,0.9-1.1,3.1-0.2,4.8
				c0.8,1.3,0.2,3.7,0.6,4.9c0.2,0.9,0.1,1.3,0.7,2.6c-0.3,1.9,2.1,4.3,1.6,4.9c1.5,0.5,1.6,3,3.5,2.7c0.9,0.5,3.5,0.6,5.6,1
				c1.4,0.6,2.4,0.2,4.2,0.1c1.3-0.5,3,0.3,4.2,0.1c0.6,0.1,1.9-0.2,2.1,0.7c-0.3,1.3-0.7,1.3-2.2,1c-1.6-0.7-2.9,0.1-4.4,0.4
				c-1.1-0.1-2.7-0.5-4.3-0.1c-1.3-0.9-2.4-1.4-4.3-0.6c-2.4-0.3-2.8-0.4-4.2-1c-1.4-0.2-2-0.3-4.2-1.3c-1-0.3-2.6-0.4-4.2-0.9
				c-1.2-0.2-3.3,0-4.3,0.3c-0.9,0.4-2.7,0.8-4.3,1.2c-1.1,0.6-3.5,0.7-4.1,1.6c-0.8,0.6-3,1-3.9,2c-1.1,0.3-2.5,2.4-3.2,2.6
				c-1.2,0.4-1.7,2.4-2.2,3.6c-0.5,1-0.9,1.6-1,2.5c-0.7,0.8-1.6,1.3-1.9,1.8c-1.3,0.2-1.6,0.7-2.6,0.4c-1.2-0.2-2.1-1-2.6-1.2
				c-1.1-0.7-0.6-1.3-1.6-2.3c-0.3-0.8-0.4-1.8,0.5-2.1c0.6-0.6,0.7-0.8,1.5-1.5c0.4-0.4,1.5-0.6,1.9-0.8c1.8,0.9,2.1-0.5,3.2-1.2
				c1.3-0.3,1.2-1.2,2.7-2c0.3-0.4,2.4-1.4,3.6-2.3c1.5-0.4,1.8-1.8,3.9-1.8c2.4-0.9,2.9-1.2,4.1-1.4c1.5-0.1,1.6,0,2.6-0.5
				c0.9,0,1.4-0.8,1.7-1.4c0.5-0.6,0.4-1.3-1.1-1.9c-0.3-0.2-1.9-0.5-2.3-1.2c-1.4-1-2.2-1.6-3.6-2.7c-1.4-0.9-2.4-1.9-3.5-2.8
				c-1.3-1.4-2.3-2.5-3.3-3c-1.2-1.1-2.3-2.1-3.1-3.3c-1.6-1.5-2.4-2.6-3.8-3.4c-2-0.4-2.9-1.8-4.4-2.5c-1.7-0.2-3.4-1.3-4.7-2.1
				c-0.3-1.1-1.6-0.4-2.7-1c-1-0.2-1.6-0.9-2.7-0.9c-0.9,0.2-2-0.6-2.7-0.7c-1-0.1-1.8,0-2.8,0.5c-1-0.1-1.6,0.7-2,0.3
				c-0.9,0.1-1.3-0.4-2-0.6c-1-0.4-1.8-1.5-2.1-2.2c0.1-1-0.6-1.7-0.3-2.5c0.3-0.9,1.1-1.6,2.5-1.7c1-0.2,2.1-0.2,3.2,0.2
				c1.2,1.3,1.7,1.3,2.1,1.7c0.5,0.6,1.1,1.2,1.4,1.3c0.3,0.3,0.9,1,1.7,1c1,0.3,2.7,1.2,3.5,1.4c1.3,0.6,2.7,0.7,3.6,1.4
				c1,0.4,2.3,0.8,3.6,1.6c0.6,0.9,2.9,1.6,3.7,2.1c0.3-1.1-0.5-1.7-1.2-3.1c-0.2-0.8-1.2-0.9-1.3-2.3c-0.1-1.1-0.5-1.6-1.1-1.8
				c-0.4-0.6-0.4-1.1-0.9-1.8c-0.1-0.7-1.1-1.3-0.9-2c-0.5-1.1-1-1.9-1-1.6c-0.4-0.3-1.4-1.5-0.9-1.9c-0.4-0.6-0.4-1.2-0.9-1.8
				c0.3-1.9-0.6-1.1-1.1-2.4c-0.6-0.7-1.4-1.2-1.5-2c-0.6-1-0.9-1.2-1.7-2c-0.8-0.5-1.4-0.9-1.7-1.6c-0.6-1.1-1.4-1.8-1.9-1.9
				c0.4-0.5-1.4-0.7-2.1-1.2c-1-0.3-1.7-0.8-2.1-1.5c0.1-0.9-1.6-0.5-2.2-1.2c-0.5-0.5-1.4,0.7-1.8-0.4c-0.1,0.2-1.3,0.2-1.8,0.7
				c0.1,0.4-1.5,0.7-2.2,0.4c-1.2-0.8-1.4-0.3-2.1-0.9c-0.7-0.2-1-0.7-1.4-1.6c-0.5-0.7-0.3-1.2,0-2.1c0.3-0.5,0.6-0.8,1.4-1.8
				c0.9-0.4,1.3-0.5,2.2-0.4c1,0.3,2,0.5,2.7,1.3c0.7,0.1,1.1,0.9,1.9,1.5c0.6,0.4,1.6,1.1,2,1.4c0.6,0.6,1.5,0.9,2,1.2
				c0.9,0.5,1.3,0.6,2.2,1.3c1,0.6,1.9,1.2,2,1.2c0.7-0.1,1.7,1.1,1.9,1.7c1.1-1.2,0.8-1.8-0.2-2.7c-1.3-0.1-0.7-1.4-0.7-1.5
				c-0.7,0.8,0.4-0.4-0.5-1.5c-0.1-1.1-0.9-1.5-0.5-1.5c-0.8,0-0.1-0.1-0.7-1.4c-1-0.8,0-1.4-0.6-1.7c-0.2-0.1-0.2-0.7-0.5-1.3
				c-0.3-0.6-1.1-0.7-0.9-2c-1.2-0.4-0.4-1.5-0.8-2.1c-0.5-0.7-0.3-1-0.9-2.1c-0.2,0.2-0.7-1-1.1-1.9c-0.5-0.2-0.8-1-1.1-1.8
				c-0.3-0.4-0.8-1-1-2.1c-0.7-0.8-0.6-1.1-1-2c-0.3-0.7-0.6-1.3-1.1-1.9c-0.5-0.5-0.8-1.2-1.1-1.7c-0.3-0.5-0.5-1-1.1-1.3
				c-0.4-0.4-1.1-0.6-1.4-1.1c-0.5-0.4-0.7-0.9-1.3-1.4c-0.4-0.4-0.8-1-1.1-1.3c-0.4-0.4-1-0.8-1.8-1c-0.5-0.6-2.3-1-2.8-1
				c-1.6-0.2-2.1,0.5-3,0.7c-1.5,0.1-1.7,0.5-2.8,0.6c-0.6,0.4-2.3,0.2-2.7-0.8c-0.9-0.6-1.9-2-1.9-2.9c0.3-1.1,0.8-2.2,1.8-3
				c1.4-0.8,2.9-1.2,3.9-1.4c1.5-0.2,3.1,0.5,3.9,1.4c-0.2,0.6,1.6,2,2.8,2c1.3,0.2,1.6,1.2,2.7,2.2c0.4,0.6,0.9,0.9,1.4,1.3
				c0.4,0.2,0.8,0.6,1,1.2c-0.1-0.1,0.3,0.4,0.7,1.1c0.5,0.5,1.2,1.1,1.6,1.8c0.7,0.3,0.8,0.9,1.2,1.3c0.1,0.4,0.6,1.1,1.1,1.6
				c0.4,0.9,0.8,1,1,1.5c0.2,0.5,0.7,0.8,1.2,1.3c1.8,0.1,1.3-1.4,0.5-2c-0.2-1.2-0.3-1.8-0.4-2.2c-0.2-0.7-0.2-1.2-0.2-1.8
				c-0.3-0.6-0.4-1.2-0.2-1.9c0.1-0.7-0.1-1.1,0.1-2.1c0.2-0.4,0.2-1,0.3-1.7c0.2-0.7,0.3-1.5,0.4-2.2c0.5-0.9,0.9-1.7,1.3-2.4
				c0.4-0.7,0.7-1.1,1-1.3c1-0.9,2-2.6,3.3-2.8c1.5-1.2,2.4-0.8,3.8-1.4c0.8,0,1.5,0,1.9-0.1c0.3,0.5,1.2,0.5,2.1,1
				c0.9,0.3,1.3,1.6,1.1,2c0.4,1,0,1.2-0.5,2c-0.5-0.3-0.7,1.3-1.8,1.1c-1.4-0.3-1,0.8-2.4,0.7c-0.6,0.1-1.4,0.9-2.4,0.6
				c-1,0.4-1.8,0.6-2.4,0.9c-0.6,0.3-1.1,0.5-1.5,1c-0.3,0.6-0.6,1-0.8,1.6c-0.1,0.5-0.2,1.3-0.2,2.5c-0.1,1-0.2,1.9-0.2,2.8
				c0.2,1,0.1,1.7,0.2,2.5c0.2,0.6,0.2,1.6,0.4,2.5c0.2,0.8,0.4,1.8,0.1,2.7c0.1,0.7,0.2,1.7,0.4,2.6c0.6,0.7,0.4,1.6,0.7,2.5
				c-0.4,1.1,0.5,2.4,0.8,2.6c0.3,0.6,1.1,1.9,0.8,2.4c0,1.3,0,1.6,0.7,2c0,0.5,0.5,1.6,0.8,2c0,0.8,0.9,1.6,1,2.1
				c0,0.1,1.3,0.1,0.6,1.9c-0.1,1.1,0.6,1.3,0.8,2.1c0.4,1.5,0.5,1.9,0.9,2c0.9,1.3,0.2,1,0.9,2.1c0.5,0.1,0.7,1.6,0.9,2.2
				c-0.1-0.2,1.2-0.9,1.3-1.9c0.4-1.5-0.2-0.9,0.4-2.1c0.3-0.5,1.2-2.5,0.4-1.9c-0.2-1.1,0.7-0.7,0.4-1.9c0.6,0.3,0.7-1.5,0.4-1.9
				c-0.3,0.5-0.2-1.2,0.1-1.8c-0.4-0.7,0.2-0.3-0.3-1.7c0-1.1-0.9-1.6-1-1.9c-0.9-0.2-0.7-1.2-0.7-2.2c0.2-0.2,0.5-1.3,0.5-2.2
				c1.2-0.6,1-2.3,1.6-2.3c0.2-0.3,1.4-0.8,2.6-1.1c0.2-0.5,1.8,0,2,0.6c0.8,0.3,0.4,1,1.2,1.7c0.3,1,1,2.3,0.6,2.8
				c-0.3,1.3,0,2.4-1.2,2.5c-1,0.3-0.8,1.4-1.9,2.1c-0.3,0.7-0.8,1.3-1.2,2.6c0,0.9,0.3,1.7-0.5,1.6c-1.3,0.2-0.7,0.9-0.2,1.5
				c-0.4,1.2,0,1.4-0.3,1.8c0.1-0.3,0.3,0.9-0.3,1.4c-0.4,0.6-0.7,1.2-0.3,1.7c-0.5,0.6-0.4,1.8-0.2,1.5c-0.4,0.4-0.1,2-0.3,2.5
				c-0.1,0.2-0.2,1.7-0.3,2.5c-0.1,0.7,0.3,1.3-0.1,2.1c0.3,0.5,0,1.5,0.5,2c0.2,0.1,1,1.7,0.8,2c-0.3,1.3,0.8,1.4,0.9,1.9
				c0.1,0.9,1,1.5,0.9,1.8c0.2,0.3,0.8,1.2,1,1.9c0.3,0.3,0.6,1.4,1.1,1.8c-0.1,0.4,0.1,1.7,1.1,1.8c-0.4,0.4,0.2,1.1,1.2,1.7
				c0.1,1,1.2,1.2,1.2,1.7c1.4-0.1,0.7-0.8,1.3-1.7c-0.2-0.9,0.6-1.6,0.4-2.3c-0.8-0.5,1.1-1.8,0.6-2.2c0.7-1.4,1.3-3,1.4-4.1
				c0.7-1.2,0.9-3-0.7-4.3c-0.3,0-0.8-1.1-0.1-1.8c0.2-0.9,0.3-1,0.8-1.8c0.3-1.1,1-2.2,2-2.5c0.4-0.7,1.7-0.5,2.4-0.3
				c0.6,0.6,1.2,1,2,2c0.5,1.3,0.7,2.1,0.6,3.1c0.1,0.7-0.6,1.1-0.7,2c-0.5,0.9-1.3,0.8-1.5,1.4c-0.7,1.4-2.1,0.7-2.8,2.9
				c-1.4,0.9-1,2.3-1.5,3.6c-0.3,0.6-0.2,2.3-0.9,4.1c-0.4,1.1-0.7,2.4-0.6,4.2c0.2,0.9-0.2,1.4,0.3,2.2c-0.1,0.5,0.9,1.4,1.1,2
				c0.9,1.5,1.8,2.5,2.9,3.6c1.1,1.2,1.3,2.4,3.3,3.1c1.3,1.2,2.4,1.7,3.6,2.8c1.4,1.2,2,2.2,3.8,2.6c1.2,0.4,3,2.1,4,2.3
				c1.1,0.6,2.3,1.5,4.4,1.9C259.9,242.1,260.8,242.3,262.8,243.3z"/>
		</g>
	</g>
</g>
</svg>
