<?xml version="1.0" encoding="utf-8"?>
<!-- Generator: Adobe Illustrator 16.0.0, SVG Export Plug-In . SVG Version: 6.00 Build 0)  -->
<!DOCTYPE svg PUBLIC "-//W3C//DTD SVG 1.1//EN" "http://www.w3.org/Graphics/SVG/1.1/DTD/svg11.dtd">
<svg version="1.1" id="Vrstva_1" xmlns="http://www.w3.org/2000/svg" xmlns:xlink="http://www.w3.org/1999/xlink" x="0px" y="0px"
	 width="72.6px" height="60px" viewBox="0 0 72.6 60" style="enable-background:new 0 0 72.6 60;" xml:space="preserve">
<style type="text/css">
<![CDATA[
	.st0{fill:#FFFFFF;stroke:#C69C6D;stroke-width:3;stroke-miterlimit:10;}
	.st1{opacity:0.6;fill:#FFFFFF;}
	.st2{fill:#AE2C38;}
	.st3{fill-rule:evenodd;clip-rule:evenodd;fill:#76531F;}
	.st4{fill:#E6E6E6;}
	.st5{fill:#FFFFFF;stroke:#C69C6D;stroke-miterlimit:10;}
	.st6{fill:#808184;}
	.st7{fill:#FFFFFF;stroke:#C69C6D;stroke-width:2;stroke-miterlimit:10;}
	.st8{fill-rule:evenodd;clip-rule:evenodd;fill:#AE2C38;}
	.st9{fill:#8C6239;}
	.st10{fill:url(#);}
	.st11{fill:none;stroke:#CAA070;stroke-miterlimit:10;}
	.st12{fill:none;stroke:#C69C6D;stroke-width:2;stroke-linecap:round;stroke-miterlimit:10;}
	.st13{fill:#F7E7CE;}
	.st14{fill:#333333;stroke:#333333;stroke-width:0.25;stroke-miterlimit:10;}
	.st15{fill:#C2A473;}
	.st16{fill:#C69C6D;}
	.st17{fill:#2C2C2C;}
	.st18{fill-rule:evenodd;clip-rule:evenodd;}
	.st19{opacity:0.7;}
	.st20{fill:#AE2C38;stroke:#8D1F2A;stroke-miterlimit:10;}
	.st21{fill:#FFFFFF;}
	.st22{fill:none;}
	.st23{fill:#CAA070;}
	.st24{fill:none;stroke:#C69C6D;stroke-miterlimit:10;}
	.st25{fill:#333333;}
	.st26{fill:none;stroke:#C69C6D;stroke-width:2;stroke-linecap:round;stroke-miterlimit:10;stroke-dasharray:2,8;}
	.st27{opacity:0.7;fill:url(#);}
	.st28{fill-rule:evenodd;clip-rule:evenodd;fill:#CAA070;}
	.st29{fill:#FFFFFF;stroke:#CAA070;stroke-miterlimit:10;}
	.st30{fill:#CAA070;stroke:#C69C6D;stroke-miterlimit:10;}
	.st31{clip-path:url(#SVGID_22_);}
	.st32{clip-path:url(#SVGID_24_);}
	.st33{clip-path:url(#SVGID_26_);}
	.st34{fill:none;stroke:#C69C6D;stroke-width:2;stroke-miterlimit:10;}
	.st35{fill-rule:evenodd;clip-rule:evenodd;fill:#333333;}
	.st36{fill-rule:evenodd;clip-rule:evenodd;fill:#333333;stroke:#FFFFFF;stroke-miterlimit:10;}
	.st37{fill-rule:evenodd;clip-rule:evenodd;fill:#FFFFFF;stroke:#333333;stroke-width:0.25;stroke-miterlimit:10;}
	.st38{fill:#76531F;}
	.st39{fill:#A67C52;}
	.st40{fill-rule:evenodd;clip-rule:evenodd;fill:#FFFFFF;stroke:#8D1F2A;stroke-miterlimit:10;}
	.st41{fill-rule:evenodd;clip-rule:evenodd;fill:#AE2C38;stroke:#8D1F2A;stroke-miterlimit:10;}
	.st42{opacity:0.8;fill:url(#);}
]]>
</style>
<g>
	<path class="st23" d="M21.2,33.8c-2.2-1.9-4.4-3.6-6.5-5.5c-2.7-2.5-4-5.4-3.2-9.2c0.6-2.9,1.7-5.4,4.4-6.7
		c1.7-0.8,3.6-1.5,5.5-1.8c3.6-0.5,7.3-0.7,10.9-0.4c4.6,0.4,8.7,2.3,12.4,5.2c0.4,0.4,0.7,0.9,1.1,1.3c1.6,0,3.1-0.2,4.7-0.1
		c4.3,0.1,7.4,2.2,9.3,5.9c0.9,1.7,1.4,3.5,1.5,5.4c0.1,1.8-0.5,3.4-1.3,4.9c-1.6,2.9-3.8,5.5-6.5,7.5c-2.1,1.6-4.2,3.3-6.5,4.7
		c-4.4,2.6-9,4-14,4.5c-1.9,0.2-3.9,0.3-5.8,0.3c-2.7,0-4.9-1-6.1-3.6c-0.7-1.5-1.5-3-1.9-4.6c-0.8-2.5-0.3-4.9,1.4-7.1
		C20.7,34.4,20.9,34.1,21.2,33.8L21.2,33.8z M54.7,22.4c0,0.5-0.2,1,0.6,1.3c0-0.5-0.1-1-0.1-1.5C54.9,22.4,54.8,22.4,54.7,22.4
		c0-0.5,0.3-1-0.4-1.3c-0.5,1.4-0.5,1.4-0.1,2.1C54.4,23,54.5,22.7,54.7,22.4z M48.3,21.3c0-0.3,0-0.5-0.1-1
		c-0.5,0.4-0.8,0.6-1.1,0.8c-0.2-0.6,0-0.9,0.5-1c2-0.6,4.1-0.7,6.1-0.2c2.1,0.6,2.8,1.7,2.7,3.9c0,0.4-0.1,0.7-0.2,1.1
		c-0.4,1.3-0.7,2.7-1.1,4c-0.4,1.4-1.1,2.5-2.2,3.4c-1.1,0.9-2.3,1.9-3.5,2.7c-3.5,2.5-7.4,4.3-11.3,6.2c-3.2,1.6-6.6,2.5-10.1,2.7
		c-1.7,0.1-3.3-0.1-4.9-0.8c-1.9-0.9-2.5-2.5-1.8-4.5c0.4,1,0.7,1.9,1.1,2.8c0.1,0,0.1,0,0.2-0.1c-0.2-1.3-0.4-2.5-0.6-3.8
		c0.8,1.4,0.8,3.2,1.7,4.6c0.2-0.3,0.2-0.7,0.2-1c-0.1-0.6-0.3-1.2-0.4-1.8c-0.2-0.9-0.3-1.8-0.4-2.7c0.1,0,0.2,0,0.3-0.1
		c0.3,1.2,0.6,2.3,0.9,3.7c1-1.6,0.1-3,0.3-4.4c-0.9-0.5-1.7-1-2.6-1.6c-1.3,1.4-2.2,2.9-2.3,4.9c-0.1,2.4,1.1,4.3,2.2,6.3
		c0.2,0.4,0.5,0.7,0.8,1.1c0.1-0.3,0.2-0.5,0.3-0.7c0.5,1.1,0.8,2.3,2.3,2.2c-0.3-0.8-0.6-1.6-0.9-2.3c1.6,2.6,1.6,2.6,2.4,2.4
		c-0.1-0.4-0.1-0.7-0.2-1.1l0,0c0.2,0.3,0.4,0.5,0.5,0.8c0.2,0.5,0.6,0.6,1,0.5c1.1-0.2,2.2-0.1,3.3-0.2c-0.3-0.7-0.5-1.3-0.7-1.9
		c0.4,0.2,0.5,0.5,0.7,0.9c0.3,0.7,0.7,1.1,1.6,0.9c2.4-0.6,4.9-0.8,7.1-1.7c5.1-1.9,9.7-4.7,13.6-8.6c1.8-1.7,3.2-3.7,4.4-5.9
		c0.5-0.9,0.9-1.9,0.9-2.9c0.2-2.8-0.6-5.4-2.2-7.7c-1.1-1.6-2.6-2.5-4.3-3.1c-2.4-0.7-4.7-0.7-7.1-0.1C43.2,18.7,41,20,38.7,21
		c-4.1,1.8-7.8,4.2-11.4,6.9c-0.2,0.2-0.4,0.4-0.8,0.7c0.9,0.4,1.6,0.8,2.5,1.2c0.1-0.5,0.1-0.8,0.2-1.2c-0.4,0-0.6,0.1-1,0.1
		c1-1.6,4.6-3.8,6.6-4c0.7,1.5,0,3.1,0.1,4.7c0.8-0.2,0.8-0.9,0.9-1.4c0.2-1.2,0.4-2.4,0.6-3.6c0.1,0,0.1,0,0.2,0
		c-0.1,1.3-0.2,2.6-0.4,4.1c0.5-0.4,0.9-0.6,1.2-0.8c0-1.3,0.2-2.5,0.8-3.6c-0.1,1-0.2,2.1-0.3,3.4c2.4-1.6,4.8-2.3,7.3-3
		c0.4-0.1,0.6-0.5,0.9-0.8c0.8,0.3,1.1,0.3,1.4-0.4C47.7,22.7,48,22,48.3,21.3c-0.1,0.7-0.3,1.4-0.5,2.5c0.6-0.4,0.9-0.6,1.2-0.8
		c0.2,0.1,0.4,0.2,0.6,0.3c0.3-1.1,0.6-2,0.9-3C49.5,20.2,48.6,20.3,48.3,21.3L48.3,21.3z M33.1,31.2c0.7-0.5,1-1.2,1.1-2.1
		c0.1-1.4,0.4-2.7,0.6-4c-0.1,0-0.2-0.1-0.3-0.1c-1.2,0.8-2.5,1.5-3.8,2.3c-0.1,0.9-0.2,1.8-0.3,2.8c0,0.5,0.2,0.7,0.7,0.7
		c0.2-1.1,0.4-2.3,0.6-3.4c0.1,0,0.2,0,0.3,0c-0.1,1.2-0.2,2.4-0.3,3.6c0.4,0.1,0.7,0.3,1,0.3C32.9,31.3,33,31.2,33.1,31.2
		L33.1,31.2L33.1,31.2z M51.3,27.2c0-0.5-0.1-1-0.1-1.6c1,0.7,1.7,2,1.4,3.1c-0.3,1.2-1,2.2-2,2.9C48.3,33,46,34,43.2,34.2
		c-4.9,0.4-9.5-0.7-14-2.6c-3.1-1.3-5.7-3.2-8.4-5.2c-1.8-1.4-3.5-2.9-4.6-5c-1-1.8-0.8-3.7,0.1-5.4c0.7-1.3,2-1.9,3.3-2.4
		c0.1,0.1,0.2,0.1,0.3,0.2c-0.4,1.4-0.9,2.8-1.3,4.2c1.5-0.6,1.2-2.3,2.4-3.3c-0.4,1.2-0.7,2.1-1.1,3.1c0.7,0.3,0.9,0,1.1-0.5
		c0.3-0.9,0.7-1.7,1.1-2.5c0.1,0,0.2,0.1,0.3,0.1c-0.3,1-0.6,1.9-1,2.9c0.7,0.3,0.8-0.1,1-0.5c0.5-1,1-2.1,1.5-3.1
		c0.1,0,0.2,0.1,0.2,0.1c-0.4,1.2-0.9,2.3-1.4,3.6c1.1,0.2,1-0.7,1.4-1.2c0.4-0.5,0.6-1.1,1-1.7c0.1,0,0.2,0.1,0.2,0.1
		c-0.4,0.9-0.7,1.9-1.1,2.8c0.1,0.1,0.2,0.1,0.3,0.2c0.8-1.3,1.6-2.6,2.4-3.9c0.1,0.1,0.2,0.1,0.3,0.2c-0.6,1.2-1.2,2.3-1.8,3.5
		c0.1,0.1,0.2,0.2,0.3,0.2c0.2,0,0.4,0,0.5,0.1c0.5-1.6,1.3-2.9,2.4-3.7c-0.6,1.3-1.2,2.5-1.8,3.7c3.3,0.7,6.6,1.2,9.7,2.5
		c1.9-0.9,3.8-1.8,5.8-2.8c-1.5-1.2-3.1-1.9-4.6-2.5c-1.6-0.6-3.3-1.1-4.9-1.6c2-0.6,8.2,1.9,9.9,3.9c0.2-0.1,0.4-0.1,0.7-0.2
		c0.2-0.1,0.4-0.2,0.6-0.3c-0.1-0.2-0.2-0.3-0.3-0.4c-0.1-0.1-0.3-0.3-0.4-0.4c-4.1-3.2-8.7-5-14-4.9c-1,0-1.9,0-2.9,0
		c-1.8,0.1-3.6,0.1-5.4,0.3c-1.9,0.3-3.8,0.9-5.5,1.9c-0.7,0.4-1.3,0.9-1.5,1.8c-0.4,1.3-0.7,2.7-1,4c-0.7,3,0.5,5.5,2.6,7.5
		c1.7,1.7,3.6,3.1,5.5,4.7c3.5,3,7.8,4.5,12.2,5.6c0.4-0.3,0.7-0.6,1.1-0.9c0,0,0.1,0.1,0.1,0.1c-0.3,0.3-0.5,0.6-0.8,0.9
		c0.9,0.4,0.9,0.4,1.5,0c0.5-0.4,0.8-0.9,1.7-1.2c-0.7,0.7-1.1,1.2-1.6,1.8c1.2,0.4,1.7-0.6,2.6-1c-0.3,0.5-0.5,0.8-0.7,1.1
		c0.6,0.5,1.1,0.4,1.6-0.1c0.6-0.7,1.2-1.3,1.8-1.9c0.2-0.2,0.5-0.4,0.7-0.6c0,0.1,0.1,0.1,0.1,0.2c-0.8,0.9-1.5,1.8-2.3,2.6
		c0.6,0.4,0.9,0.1,1.2-0.2c0.8-0.8,1.6-1.7,2.4-2.5c0.3-0.3,0.6-0.6,0.9-0.9c0.1,0.1,0.1,0.1,0.2,0.2c-0.5,0.6-0.9,1.3-1.4,1.9
		c4-1.7,7.6-4,10.6-7c-0.4-1.9,0.2-3.9-1.4-5.4C50,24.7,48.1,25,46.2,26c0.9,0.4,1.3,1.5,2.5,0.9c-0.5,1.1,0.6,1.6,0.7,2.6
		c0.4-0.3,0.6-0.6,0.9-0.8c-0.2,0.6-0.5,1.3-0.7,1.9c0.7-0.5,1.1-1.2,1.7-1.7C51.9,28.2,51.9,27.8,51.3,27.2L51.3,27.2z M25.4,27.8
		c2.7-2.6,6.1-4.2,9.3-6.1c-0.3-0.2-0.5-0.3-0.7-0.3c-4.3-1.4-8.8-2-13.4-2.2c-1.3-0.1-2.6,0.3-3.9,0.8
		C17.8,22.2,21.3,25.4,25.4,27.8z M34.3,31.7c4.5,1.2,9.1,1.5,13.6,0.1c0.3-2.5-1-3.8-2.7-5c-0.4-0.3-0.9-0.4-1.4-0.2
		C40.2,27.6,37.2,29.4,34.3,31.7L34.3,31.7z M25.5,42.7c4.3,0.1,8.3-1,12.2-2.9c-0.5-0.2-0.8-0.3-1-0.4c-0.9-0.2-1.8-0.3-2.7-0.5
		c-1.6-0.4-3.2-0.9-4.8-1.3c-0.5-0.1-1-0.2-1.4,0.3C26.7,39.2,25.7,40.7,25.5,42.7z M16.5,18.8c0.5-1.1,0.9-1.9,1.2-2.7
		c0.1,0,0.1,0.1,0.2,0.1c-0.3,0.8-0.6,1.6-0.9,2.7c0.5-0.3,0.8-0.3,0.9-0.5c0.5-1.3,0.9-2.6,1.4-3.9C16.9,15.6,16.2,16.6,16.5,18.8z
		 M53,21.3c-0.1,0.6-0.2,1.1-0.3,1.6c0.1,0,0.2,0.1,0.3,0.1c0.6-0.5,0.5-1.4,0.9-2.2c-0.6-0.2-1.2-0.3-1.8-0.5
		c-0.3,0.9-0.5,1.7-0.7,2.6C52.7,23,52.2,21.8,53,21.3L53,21.3z M50.1,23.1c0.1,0,0.2,0.1,0.3,0.1c1-0.7,0.9-1.8,1.3-3.2
		c-0.5,0.2-0.9,0.3-1,0.5C50.5,21.4,50.3,22.3,50.1,23.1z M25.1,36c0.1,0.9,0.3,1.6,0.4,2.6c0.6-0.7,1-1.2,1.5-1.8
		C26.3,36.5,25.8,36.3,25.1,36z M54.6,27.1c0.2-0.7,0.3-1.2,0.4-1.8c-0.6-0.3-1.1-0.5-1.8-0.8C53.7,25.5,54.1,26.2,54.6,27.1z
		 M29.9,30.2c0.1-0.8,0.2-1.5,0.4-2.4C29.2,28.3,29.1,28.8,29.9,30.2z"/>
	<path class="st23" d="M29.6,45.6c0.2,0.5,0.4,1,0.6,1.6c-0.1,0-0.2,0.1-0.2,0.1c-0.2-0.5-0.4-1-0.6-1.6
		C29.5,45.6,29.5,45.6,29.6,45.6z"/>
	<path class="st23" d="M28.2,46c0.1,0.3,0.2,0.5,0.4,0.8c-0.1,0-0.1,0.1-0.2,0.1c-0.1-0.3-0.2-0.5-0.4-0.8
		C28.1,46.1,28.1,46.1,28.2,46L28.2,46z"/>
	<path class="st23" d="M26.9,47.2c-0.2-0.3-0.4-0.6-0.6-0.9c0.1,0,0.2-0.1,0.3-0.1C26.6,46.5,26.7,46.9,26.9,47.2L26.9,47.2z"/>
	<path class="st23" d="M46.6,22.4c-0.2,0.5-0.4,1-0.6,1.5C46.2,23.4,46.4,22.9,46.6,22.4z"/>
	<path class="st23" d="M47.2,21c-0.2,0.5-0.4,1-0.6,1.5C46.8,22,47,21.5,47.2,21L47.2,21z"/>
	<path class="st23" d="M33.1,31.2c-0.3-1.3-0.1-2.7,0.6-4.3c-0.1,0.7-0.1,1.4-0.2,2.1C33.4,29.8,33.3,30.5,33.1,31.2
		C33.1,31.2,33.1,31.2,33.1,31.2z"/>
</g>
</svg>
