<?xml version="1.0" encoding="utf-8"?>
<!-- Generator: Adobe Illustrator 16.0.0, SVG Export Plug-In . SVG Version: 6.00 Build 0)  -->
<!DOCTYPE svg PUBLIC "-//W3C//DTD SVG 1.1//EN" "http://www.w3.org/Graphics/SVG/1.1/DTD/svg11.dtd">
<svg version="1.1" id="Vrstva_1" xmlns="http://www.w3.org/2000/svg" xmlns:xlink="http://www.w3.org/1999/xlink" x="0px" y="0px"
	 width="348.1px" height="318.3px" viewBox="0 0 348.1 318.3" style="enable-background:new 0 0 348.1 318.3;" xml:space="preserve"
	>
<style type="text/css">
<![CDATA[
	.st0{fill:#FFFFFF;stroke:#C69C6D;stroke-width:3;stroke-miterlimit:10;}
	.st1{opacity:0.6;fill:#FFFFFF;}
	.st2{fill:#AE2C38;}
	.st3{fill-rule:evenodd;clip-rule:evenodd;fill:#76531F;}
	.st4{fill:#E6E6E6;}
	.st5{fill:#FFFFFF;stroke:#C69C6D;stroke-miterlimit:10;}
	.st6{fill:#808184;}
	.st7{fill:#FFFFFF;stroke:#C69C6D;stroke-width:2;stroke-miterlimit:10;}
	.st8{fill-rule:evenodd;clip-rule:evenodd;fill:#AE2C38;}
	.st9{fill:#8C6239;}
	.st10{fill:url(#);}
	.st11{fill:none;stroke:#CAA070;stroke-miterlimit:10;}
	.st12{fill:none;stroke:#C69C6D;stroke-width:2;stroke-linecap:round;stroke-miterlimit:10;}
	.st13{fill:#F7E7CE;}
	.st14{fill:#333333;stroke:#333333;stroke-width:0.25;stroke-miterlimit:10;}
	.st15{fill:#C2A473;}
	.st16{fill:#C69C6D;}
	.st17{fill:#2C2C2C;}
	.st18{fill-rule:evenodd;clip-rule:evenodd;}
	.st19{opacity:0.7;}
	.st20{fill:#AE2C38;stroke:#8D1F2A;stroke-miterlimit:10;}
	.st21{fill:#FFFFFF;}
	.st22{fill:none;}
	.st23{fill:#CAA070;}
	.st24{fill:none;stroke:#C69C6D;stroke-miterlimit:10;}
	.st25{fill:#333333;}
	.st26{fill:none;stroke:#C69C6D;stroke-width:2;stroke-linecap:round;stroke-miterlimit:10;stroke-dasharray:2,8;}
	.st27{opacity:0.7;fill:url(#);}
	.st28{fill-rule:evenodd;clip-rule:evenodd;fill:#CAA070;}
	.st29{fill:#FFFFFF;stroke:#CAA070;stroke-miterlimit:10;}
	.st30{fill:#CAA070;stroke:#C69C6D;stroke-miterlimit:10;}
	.st31{clip-path:url(#SVGID_22_);}
	.st32{clip-path:url(#SVGID_24_);}
	.st33{clip-path:url(#SVGID_26_);}
	.st34{fill:none;stroke:#C69C6D;stroke-width:2;stroke-miterlimit:10;}
	.st35{fill-rule:evenodd;clip-rule:evenodd;fill:#333333;}
	.st36{fill-rule:evenodd;clip-rule:evenodd;fill:#333333;stroke:#FFFFFF;stroke-miterlimit:10;}
	.st37{fill-rule:evenodd;clip-rule:evenodd;fill:#FFFFFF;stroke:#333333;stroke-width:0.25;stroke-miterlimit:10;}
	.st38{fill:#76531F;}
	.st39{fill:#A67C52;}
	.st40{fill-rule:evenodd;clip-rule:evenodd;fill:#FFFFFF;stroke:#8D1F2A;stroke-miterlimit:10;}
	.st41{fill-rule:evenodd;clip-rule:evenodd;fill:#AE2C38;stroke:#8D1F2A;stroke-miterlimit:10;}
	.st42{opacity:0.8;fill:url(#);}
]]>
</style>
<g>
	<g id="XMLID_13_">
		<g>
			<path class="st38" d="M0,230.7c0,0.3,0.4,0.4,0.4,0.1c3.2-14.9,9.3-27.6,17.5-39c19.6-5,35.1,13.2,55.6,11.7
				c5.1-0.4,15.9-3.3,20.4-8.7c0.4-0.1,0.8-0.3,1.1-0.5c0.5-0.3,0.3-0.9-0.1-1.1c0.6-1.1,0.9-2.2,0.9-3.4c0-11.6-20.6-12.8-28.3-13
				c-16.1-0.6-30.3,1.2-44.2,8c7-8.5,15-16.1,23.7-23.2c4.3-1.3,7.9-2.4,13.7-1.4c4.8,0.8,9.4,3.3,14.3,4.3
				c8.5,1.9,17.9,2.5,26.4,1.4c8.4-1.1,16.7-7,15-15.9c0-0.1-0.1-0.1-0.1-0.2c0-0.1,0-0.1,0-0.1c-0.1-0.1-0.1-0.2-0.2-0.3
				c-3.9-7-10.9-8-18.5-6.9c-11.1,1.6-22.2,3.1-33,6.1c4.8-3.3,9.7-6.6,14.6-9.8c5.2-3.4,10.6-6.9,15.9-10.6
				c2.8-1.7,5.4-3.4,8.7-4.6c4.9-1.8,7.3-0.4,11.7-1.3c6.5-1.3,11.8-3.9,17.3-7.6c8.1-5.5,17.9-16.8,18.5-27.1
				c0.7-13.1-13.1-2.3-24,8.2c2.5-4.5,4.4-9.3,5.6-14.5l-1.1-0.1c-2.1,8.2-6.3,15.4-11.7,21.9c-0.8,0.9-1.6,1.7-2.3,2.4
				c2.8-4.3,5.2-9,6.9-14c3-8.6,3.2-21.4-6.4-25.6c-0.2-0.2-0.5-0.3-0.8-0.3c0,0,0,0,0,0c-0.1,0-0.3,0-0.4,0
				c-6.5,0.4-9.5,4-10.2,10.6c-0.5,5.1-0.2,10.1-0.3,15.2c-0.3,10.5-5.3,20.4-9.4,29.9c-0.3,0.6,0.1,1.1,0.5,1.4
				c-11.7,8.2-24.4,15.3-35.3,22.4c7.5-8.5,14-18.2,18.9-27.8c4.1-8,7-21.5-0.8-28.1c-7.8-6.6-17.2,3.2-20.4,9.4
				c-8.7,16.5-5.2,37.5-11.6,55c-0.2,0.6,0,1,0.3,1.3c-9.7,7.5-18.5,15.8-26,25c1.6-3.7,2.9-7.5,4.2-11.2c3.3-9.3,7.5-19.8,7.9-29.7
				c0.3-6.2-0.1-22.7-9.1-24c-10.5-1.6-16.1,9.2-18.4,17.7c-5.1,18.6,5.1,37.9,7.1,56.2c0.1,0.6,0.5,1,0.9,1.1
				c-0.1,0.1-0.2,0.3-0.3,0.4c-0.3,0.2-0.5,0.5-0.5,0.8C7.3,202.8,2.1,215.9,0,230.7z"/>
			<path class="st38" d="M131.7,81.1l1.1,0.1c7.9-12.6,12.4-28.4,12.6-43.3c0.1-5.4-1.5-18.8-10.3-16.4c-17.8,4.8-3.8,39.6-2.1,50.8
				c0,0.1,0.1,0.2,0.2,0.3C132.9,75.5,132.4,78.4,131.7,81.1z"/>
		</g>
	</g>
	<path class="st15" d="M326.8,259.4c-5.6-9.4-13.1-10.7-22.3-14.4c-5.5-4.9-11.7-8.4-18.4-10.9c2.7,0,5.5-0.2,8.4-0.6
		c11.1-1.8,26.7-4,37,0.6c0.2,0.1,0.4,0,0.5-0.1c0.1,0.1,0.3,0.2,0.4,0.3c0.3,0.2,0.7-0.3,0.4-0.5c-10.7-8.6-23.1-16.6-37.4-15.9
		c-7.3,0.4-13.8,2-20.4,5.1c-4.8,2.2-10.2,3.9-14.7,6.7c-6.4-0.2-12.9,0.1-19.5,0.8c-0.2,0-0.3,0-0.5,0.1c-3.7,0.4-7.4,1-11.1,1.6
		c3-2.1,5.6-5,7.8-7.9c8.6-11.2,4.9-29.3,16.3-38c0.4-0.3,0.1-1-0.4-0.8c-1.1,0.3-2,0.8-2.8,1.3c-13,2.8-23.1,7.1-30.8,18
		c-2.6,3.7-4.7,8.1-5.9,12.5c-1.8,6.5-1.3,14-5.5,19.6c-10.7,2.7-20.9,5.9-29.9,8.7c-1.9,0.6-3.7,1.2-5.6,1.8
		c4.7-2.8,8.8-6.5,11.8-12.2c3.2-6,5.4-12,6.2-18.8c1.2-9.1,0.3-15.2,6.4-21.3c0.3-0.2,0.5-0.4,0.8-0.6c1.5-0.8,2.9-1.7,4.2-2.7
		c0.3-0.2,0.2-0.8-0.2-0.7c-7.3,1.3-14.6,5.3-21,10.3c-6.7,3.8-12.5,8.5-16.3,15.9c-5.8,11.3-5.1,24.9-10.8,35.8
		c-17.3,4.9-35,8.9-52.8,9.4c10-3.7,19.1-7.6,24.6-17.9c3.2-6,5.4-12,6.2-18.8c1.2-9.1,0.3-15.2,6.4-21.3c0.3-0.2,0.5-0.4,0.8-0.6
		c1.5-0.8,2.9-1.7,4.2-2.7c0.3-0.2,0.2-0.8-0.2-0.7c-7.3,1.3-14.6,5.3-21,10.3c-6.7,3.8-12.5,8.5-16.3,15.9
		c-5.8,11.3-5.1,25-10.9,35.9c-3.6-0.1-7.2-0.2-10.8-0.6c-29.3-3.1-58.3-13.7-82-31.3c-0.7-0.5-1.6,0.5-0.9,1
		c14.8,11.3,31,20.3,48.5,26.1c0.1,0.3,0.2,0.5,0.5,0.6c0.2,0.1,0.5,0.1,0.7,0.2c0.1,0.2,0.2,0.3,0.5,0.3
		c9.3,1.7,11.4,26.2,16.1,32.9c6.9,9.9,17.8,15.2,28.4,20.5c0.1,0.1,0.1,0.1,0.2,0.2c0.3,0.3,0.8-0.1,0.6-0.5
		c-9.1-12-5.2-28.5-14.4-40.7c-2.5-3.2-5.4-5.8-8.6-7.9c7,1,13.9,1.5,20.9,1.5c0.1,0,0.2,0,0.3,0c8.4,0.1,16.8-0.5,25.2-1.6
		c0.1,0.1,0.3,0.2,0.4,0.2c0.3,0,0.5,0,0.8,0c0.1,0.1,0.3,0.2,0.5,0.2c6.5-0.6,11.5,9.5,14.8,14c3.9,5.4,7.8,10.3,13.2,14.4
		c8.3,6.3,20.8,7.5,30.8,9.1c0.1,0,0.2,0.1,0.2,0.1c0.5,0.2,0.7-0.4,0.3-0.7c-12.8-8.5-14.8-25.7-27.4-35.2
		c-4.5-3.4-10-4.9-15.7-5.3c4.5-1,9.1-2.1,13.6-3.4c11.2-3.2,22.4-6.9,33.6-10.4c0,0,0.1,0,0.1,0c0.3,0,0.5,0,0.8,0
		c0.1,0.1,0.3,0.2,0.5,0.2c6.5-0.6,11.5,9.5,14.8,14c3.9,5.4,7.8,10.3,13.2,14.4c8.3,6.3,20.8,7.5,30.8,9.1c0.1,0,0.2,0.1,0.2,0.1
		c0.5,0.2,0.7-0.4,0.3-0.7c-12.8-8.5-14.8-25.7-27.4-35.2c-6.3-4.7-14.5-5.9-22.5-5.3c14.6-4.3,29.3-7.9,44.4-9.1
		c0.4,0,0.8-0.1,1.2-0.1c11.6,4.9,13.8,22.4,21.6,31.3c5.4,6.2,11.9,9.5,19.7,12.1c0.2,0.1,0.3-0.2,0.2-0.4c0,0,0,0,0,0c0,0,0,0,0,0
		c0,0,0,0,0,0c0,0-0.1,0-0.1-0.1c-0.4-0.3-0.7-0.6-1-0.9c-6.1-5.1-5.2-13-7.6-19.9c-1.7-5-3.9-9.3-7.2-13.4c-3.9-5-9.6-7.7-15.7-9.4
		c11.2-0.5,23-0.1,33.3,3.1c9,2.8,15.4,8.1,21.5,14.1c3.1,7.2,1.8,15.3,7.5,21.6c6.5,7.2,15,12.3,21.9,19.2c0.5,0.5,1.4-0.1,1.2-0.8
		C332.9,280,332.2,268.4,326.8,259.4z"/>
	<g>
		<g>
			<g>
				<path class="st23" d="M259,165.1c-1.2-2.1-3-2.9-4.8-2.7c-0.2-0.8-0.8-1.5-1.5-2c-0.6-0.3-1.4-0.3-2.1-0.3c0-0.9,0-1.7-0.5-2.6
					c-0.9-1.5-2.3-1.8-3.5-1.5c7.4-10.9,12.6-29.7-2.3-35.3c-7.1-2.7-12.6-0.3-16.5,4.4V125c-0.5-1.1-1.8-1.5-2.9-2
					c-1.2-0.5-2.4-0.6-3.6-0.5c-0.8,0-1.5,0.9-0.9,1.5c1.4,1.8,2.7,3.8,4.4,5.5l0,0c-3.3,6.1-5.3,13.8-5.9,20c0-3-0.2-5.9-0.6-8.8
					c-0.5-3.5-1.8-7.1-3.6-10.5c0.8-1.1,1.2-2.4,1.7-3.6c0.5-1.5,0.8-3,1.1-4.5c0.2-0.6-0.8-1.2-1.4-1.1c-2.1,0.9-3.9,2-5.5,3.6
					c-4.5-4.5-10.6-7.1-17.6-4.4c-13.8,5.3-11.1,22-6.1,32.9c-1.7-0.6-3.8-0.2-4.8,1.4c-1.1,1.5-1.2,3-0.8,4.5
					c-1.2,0-2.6,0.6-3.3,1.7c-0.6,0.9-0.8,1.8-0.6,2.7c-1.1,0.2-2.1,0.6-2.7,1.7c-0.5,0.6-0.6,1.8-0.5,2.9c-0.2,0.2-0.3,0.5-0.3,0.8
					c1.7,9.2,9.2,14.5,17.6,14.9c-0.6,3.3-0.8,6.7-0.8,10.2c0,0.8,1.4,1.1,1.4,0.2c0.5-3.5,0.9-6.8,0.9-10.3c1.1,0,2.1-0.2,3.3-0.3
					c0,0,0,0,0,0.2c0.2,2.9,0.5,5.9,0.9,8.6c0.2,0.9,1.7,0.8,1.7-0.2c-0.2-2.9-0.6-5.8-1.2-8.6v-0.2c1.7-0.5,3.2-0.9,4.7-1.8
					c8.6-4.5,13.5-13.3,15.3-22.9c0.8,10.3,6.4,20.9,15.2,24.9c-0.6,3.5,0.2,7.9,1.5,10.9c0.3,0.8,1.5,0.3,1.4-0.5
					c-0.2-1.8-0.5-3.6-0.8-5.5c-0.2-1.5-0.3-2.9-0.5-4.4c1.7,0.6,3.3,0.9,5.3,0.9c-0.3,3,0.2,6.1,1.7,8.6c0.5,0.9,1.8,0.3,1.7-0.6
					c-0.8-2.7-1.5-5.3-1.8-8c2.1-0.2,4.5-0.6,7-1.5C254.3,181.5,263.3,172.5,259,165.1z M214.8,124c-0.2,0.8-0.5,1.5-0.6,2.3
					c-0.3,0.8-0.6,1.4-0.8,2.1c-0.6-0.9-1.2-1.7-2-2.4C212.5,125.3,213.6,124.5,214.8,124z M206.6,176.3c-10.3,9.7-24.7,7-30.3-5.3
					c0.2,0,0.3,0,0.5,0c0.3,0,0.6-0.5,0.6-0.8c0-1.2-1.2-2-0.8-3.2c0.3-0.6,0.8-1.1,1.5-1.4c0.6,0.9,1.5,1.7,2.7,1.7
					c0.8,0,1.1-1.2,0.5-1.5c-0.3-0.2-0.5-0.3-0.8-0.5c0.2-0.2,0-0.5-0.2-0.6c-0.2-0.2-0.5-0.3-0.8-0.5c-0.3-0.6-0.5-1.4,0-2.1
					c0.5-0.9,1.5-1.2,2.6-1.1c0.6,0.9,1.5,1.5,2.7,2c0.9,0.3,1.4-1.1,0.6-1.5c-1.5-1.1-3-2.9-2.3-5c0.8-2.1,3.5-2.7,4.7-0.8
					c0,0.2,0.2,0.2,0.2,0.2s0,0,0,0.2c0.5,0.9,2.3,0.3,1.8-0.8c-3.9-9.5-10-28.2,4.5-32.6c13.8-4.2,21.1,12.1,21.7,22.7
					C216.9,156.2,214.6,168.7,206.6,176.3z M223.3,124.8c0.3,0,0.6,0.2,0.8,0.3c0.9,0.3,1.7,1.1,2.6,1.2c0,0,0,0,0.2,0
					c-0.5,0.6-0.9,1.2-1.2,1.8C224.8,127.1,224,125.9,223.3,124.8z M253.4,176.9c-0.2,0.3-0.2,0.6,0.2,0.8c-1.7,1.7-4.1,3.2-6.4,3.9
					c-5.5,1.8-11.2,0.9-16.1-2c-10.5-6.4-12.3-18.2-11.4-29.4l0,0c1.8-12.6,8.2-31.8,22.7-27.4c17.1,5.3,6.1,27-0.9,36.1
					c-0.8,0.9,0.8,2.1,1.7,1.2c0.6-0.6,1.2-1.4,1.8-2.1c1.5-0.8,3.3-1.1,3.8,1.1c0.3,2.1-1.5,3.3-2.6,5c-0.5,0.8,0.5,1.7,1.2,1.2
					c0.2-0.2,0.3-0.3,0.5-0.5c0.2,0,0.5-0.2,0.5-0.5l0,0c0.8-0.8,1.4-1.7,1.8-2.6c0.5-0.2,0.8-0.2,1.4-0.2c0.5,0.2,0.8,0.5,0.9,0.9
					c-1.2,0.6-2.3,1.8-2.9,3.5c-0.2,0.6,0.6,0.9,1.1,0.5c1.7,0.2,3.2,0.5,4.2,0.9c0.9,1.1,1.4,2.3,1.4,3.6
					C256.1,173.7,254.6,175.1,253.4,176.9z"/>
				<path class="st23" d="M235.8,130.1c-2.4-0.5-4.7,2.3-3.9,4.5c0.3,0.8,1.4,0.6,1.4-0.2c-0.2-1.2,0.9-2.9,2.4-2.4
					c1.2,0.5,1.4,1.8,1.4,2.9c-0.2,0.8,1.1,0.9,1.4,0.5C239.8,133.3,238,130.4,235.8,130.1z"/>
				<path class="st23" d="M197.9,129c-2.6,1.4-1.2,4.7,0.5,6.1c0.6,0.5,1.4-0.2,1.1-0.8c-0.5-0.8-2-2.9-0.6-3.6
					c1.4-0.8,2.3,1.8,2.6,2.6c0.3,0.5,1.2,0.3,1.2-0.3C202.5,130.9,200.5,127.7,197.9,129z"/>
				<path class="st23" d="M200.2,151.6c-0.9,0.3-0.6,1.4,0.2,1.5c2.4,0.3,5.5,0.3,6.2,3.2c0.3,0.9,0.2,2.1-0.8,2.7
					c-0.8,0.5-2,0.5-2.6-0.5c-0.5-0.8-1.5-0.2-1.4,0.6c-0.5-0.2-0.9-0.2-1.4,0c-0.6,0.2-0.9,1.2-0.2,1.5c1.2,0.6,2.9,1.1,2.7,2.9
					c-0.3,1.5-2.3,2.1-3,0.6c-0.2-0.6-0.5-1.2-0.8-1.7c-0.5-0.6-1.5-0.5-1.5,0.5c0.2,1.2,0.6,2.3,0.3,3.5c-0.3,1.7-1.8,2.6-3.2,1.4
					c-2.1-2-0.5-5.2,0.5-7.1c0.3-0.6-0.5-1.1-0.9-0.5c-1.2,1.8-2.6,3.8-2.3,6.1c0.2,1.7,1.2,3.2,2.9,3.8c2.9,1.1,4.7-1.4,5-3.9
					c1.4,0.8,3.5,0.3,4.4-1.2c0.8-1.2,0.6-2.7-0.2-3.8c2,0.3,4.4-1.2,4.5-3.5C209.5,153,204,150.4,200.2,151.6z"/>
				<path class="st23" d="M240.1,165.9c-0.8-0.6-1.7,0.2-1.2,0.9c0.5,0.9-0.2,2.7-1.2,2.9c-0.8,0.2-1.4-0.6-1.5-1.4
					c0-0.3,0-0.8,0-1.1c0-0.2,0.2-0.3,0.2-0.5c0.3-0.5-0.2-1.1-0.6-1.1c-0.2-0.2-0.2-0.3-0.3-0.5c-0.5-0.6-1.2-0.3-1.2,0.3
					c-0.2,1.4,0.6,4.8-1.5,4.8c-1.1,0-2-1.1-2.3-2c-0.5-1.7,0.3-3.3,0.9-4.8c0.2-0.3-0.2-0.6-0.3-0.6c0-0.3,0-0.6,0-1.1
					c-0.2-0.8-1.4-0.8-1.5,0c-0.3,1.1-0.6,4.2-2.4,2.9c-2-1.4-0.3-3.9,0.8-5.2c0.3-0.5-0.2-1.2-0.6-0.8c-1.4,1.1-2.6,2.3-2.7,4.1
					c-0.2,1.5,0.5,3,1.8,3.8c1.1,0.6,2.1,0.6,2.9,0.2c-0.2,0.8-0.2,1.5,0,2.4c0.5,1.5,1.8,2.9,3.3,3c1.5,0.2,2.4-0.5,3.2-1.5
					c0.6,0.6,1.4,1.1,2.3,1.1C240.5,171.8,242.3,167.8,240.1,165.9z"/>
				<path class="st23" d="M220.4,109.6c-0.5-0.8-1.4-1.1-2.3-0.9c-1.4,0.3-2,1.5-2.3,2.7c-0.5-0.5-0.8-0.9-1.2-1.2
					c-1.8-2-4.7,0.9-2.9,2.9c1.2,1.4,2.7,4.1,4.7,4.2c0.2,0,0.2,0.2,0.3,0.2c0.6,0.3,1.2-0.2,1.5-0.8c0.9-0.6,1.2-1.8,1.7-2.7
					C220.4,112.5,221.3,111,220.4,109.6z"/>
			</g>
		</g>
	</g>
</g>
</svg>
